<svg width="50" height="51" viewBox="0 0 50 51" fill="none" xmlns="http://www.w3.org/2000/svg">
<g clip-path="url(#clip0_17100_3077)">
<path d="M31.4731 40.143C30.7464 40.143 30.1158 39.6029 30.0216 38.8632C29.9197 38.0606 30.4874 37.3274 31.2896 37.2252C35.9183 36.6354 40.0634 35.3812 42.961 33.6928C45.6111 32.149 47.0702 30.3339 47.0702 28.5822C47.0702 26.6516 45.3627 25.072 43.9299 24.0862C43.2635 23.6277 43.0949 22.716 43.5534 22.0492C44.012 21.3828 44.9241 21.2142 45.5905 21.6727C48.4751 23.6571 49.9999 26.0462 49.9999 28.5826C49.9999 31.4612 48.0761 34.1036 44.4362 36.2242C41.1597 38.1331 36.7419 39.4842 31.66 40.1316C31.5971 40.1392 31.5345 40.143 31.4731 40.143Z" fill="white"/>
<path d="M24.6429 38.0445L20.7367 34.1383C20.1644 33.5661 19.2371 33.5661 18.6649 34.1383C18.0931 34.7101 18.0931 35.6379 18.6649 36.2097L19.8062 37.351C15.43 36.899 11.4544 35.8801 8.37591 34.3996C4.91485 32.7353 2.92968 30.6147 2.92968 28.5822C2.92968 26.8583 4.35104 25.0666 6.93167 23.5369C7.62785 23.1245 7.8575 22.2258 7.44513 21.53C7.03238 20.8338 6.13364 20.6042 5.43784 21.0165C0.943373 23.6807 0 26.6012 0 28.5822C0 31.8323 2.5238 34.836 7.10639 37.0401C10.6632 38.7503 15.2641 39.8958 20.2766 40.3391L18.6649 41.9508C18.0931 42.5226 18.0931 43.4503 18.6649 44.0225C18.951 44.3083 19.326 44.4513 19.701 44.4513C20.0756 44.4513 20.4506 44.3083 20.7367 44.0225L24.6429 40.1163C25.2147 39.5441 25.2147 38.6164 24.6429 38.0445Z" fill="white"/>
<path d="M15.341 25.6486V25.2962C15.341 24.053 14.58 23.8119 13.5596 23.8119C12.9286 23.8119 12.7245 23.2553 12.7245 22.6987C12.7245 22.1418 12.9286 21.5852 13.5596 21.5852C14.2645 21.5852 15.0069 21.4925 15.0069 19.9896C15.0069 18.9134 14.3946 18.6537 13.6336 18.6537C12.7245 18.6537 12.2607 18.8764 12.2607 19.6001C12.2607 20.2306 11.9822 20.6575 10.9061 20.6575C9.57017 20.6575 9.40347 20.379 9.40347 19.4883C9.40347 18.0414 10.4422 16.1672 13.6336 16.1672C15.9903 16.1672 17.7714 17.0206 17.7714 19.5257C17.7714 20.8799 17.2705 22.1418 16.3428 22.5687C17.4376 22.9768 18.2352 23.7932 18.2352 25.2962V25.6486C18.2352 28.6916 16.1387 29.8421 13.5409 29.8421C10.3495 29.8421 9.125 27.894 9.125 26.3353C9.125 25.5003 9.47748 25.2775 10.4979 25.2775C11.6854 25.2775 11.9822 25.5373 11.9822 26.2426C11.9822 27.1146 12.7989 27.3187 13.6336 27.3187C14.8955 27.3187 15.341 26.8549 15.341 25.6486Z" fill="white"/>
<path d="M29.4993 25.2962V25.4633C29.4993 28.6546 27.5137 29.8421 24.9533 29.8421C22.3929 29.8421 20.3887 28.6546 20.3887 25.4633V20.5461C20.3887 17.3547 22.4482 16.1672 25.1204 16.1672C28.2561 16.1672 29.4993 18.1154 29.4993 19.6554C29.4993 20.5461 29.0724 20.8242 28.1447 20.8242C27.347 20.8242 26.6417 20.6201 26.6417 19.7668C26.6417 19.0618 25.8998 18.6907 25.0277 18.6907C23.9329 18.6907 23.2833 19.2659 23.2833 20.5461V22.2158C23.8772 21.5665 24.7122 21.3995 25.603 21.3995C27.7178 21.3995 29.4993 22.3272 29.4993 25.2962ZM23.2833 25.6673C23.2833 26.9475 23.9142 27.5041 24.9533 27.5041C25.9925 27.5041 26.6047 26.9475 26.6047 25.6673V25.5003C26.6047 24.1457 25.9925 23.6261 24.9346 23.6261C23.9329 23.6261 23.2833 24.1087 23.2833 25.3332V25.6673Z" fill="white"/>
<path d="M31.7441 25.4633V20.5461C31.7441 17.3547 33.7293 16.1672 36.2901 16.1672C38.8505 16.1672 40.8544 17.3547 40.8544 20.5461V25.4633C40.8544 28.6546 38.8505 29.8421 36.2901 29.8421C33.7293 29.8421 31.7441 28.6546 31.7441 25.4633ZM37.9598 20.5461C37.9598 19.2659 37.3292 18.6907 36.2901 18.6907C35.251 18.6907 34.6387 19.2659 34.6387 20.5461V25.4633C34.6387 26.7435 35.251 27.3187 36.2901 27.3187C37.3292 27.3187 37.9598 26.7435 37.9598 25.4633V20.5461Z" fill="white"/>
<path d="M44.3711 16.1543C41.9476 16.1543 39.9766 14.1828 39.9766 11.7598C39.9766 9.33667 41.9476 7.36523 44.3711 7.36523C46.7942 7.36523 48.7656 9.33667 48.7656 11.7598C48.7656 14.1828 46.7942 16.1543 44.3711 16.1543ZM44.3711 10.2949C43.5631 10.2949 42.9062 10.9522 42.9062 11.7598C42.9062 12.5677 43.5631 13.2246 44.3711 13.2246C45.1787 13.2246 45.8359 12.5677 45.8359 11.7598C45.8359 10.9522 45.1787 10.2949 44.3711 10.2949Z" fill="white"/>
</g>
<defs>
<clipPath id="clip0_17100_3077">
<rect width="50" height="50" fill="white" transform="translate(0 0.919922)"/>
</clipPath>
</defs>
</svg>
