<svg width="30" height="29" viewBox="0 0 30 29" fill="none" xmlns="http://www.w3.org/2000/svg">
<path fill-rule="evenodd" clip-rule="evenodd" d="M4.13023 0.0240399C4.29613 0.0367382 4.51783 0.0684394 4.75332 0.176059C5.06737 0.319582 5.33351 0.550404 5.52 0.840998C5.65984 1.0589 5.72258 1.27389 5.75861 1.43632C5.78966 1.57629 5.81256 1.73697 5.83246 1.87656C5.83368 1.88515 5.8349 1.89365 5.8361 1.90207L6.32817 5.34653L27.327 5.34652C27.5192 5.34647 27.7293 5.34641 27.9098 5.36215C28.1106 5.37965 28.397 5.42408 28.6841 5.59139C29.0526 5.80619 29.3329 6.1449 29.475 6.54713C29.5856 6.86042 29.5756 7.15012 29.5553 7.35063C29.537 7.53086 29.4976 7.73731 29.4616 7.92609L27.6831 17.2628C27.5719 17.8467 27.477 18.345 27.3674 18.7526C27.2516 19.1831 27.1006 19.5895 26.8398 19.9682C26.44 20.5489 25.8865 21.0069 25.2413 21.291C24.8205 21.4763 24.393 21.5486 23.9484 21.5818C23.5275 21.6132 23.0202 21.6132 22.4259 21.6132H10.9341C10.3093 21.6132 9.77723 21.6132 9.33718 21.5794C8.87333 21.5438 8.42727 21.4662 7.99199 21.2662C7.32647 20.9604 6.76349 20.4689 6.3708 19.8506C6.11396 19.4463 5.97692 19.0148 5.87908 18.56C5.78627 18.1285 5.71456 17.6013 5.63035 16.9822L4.22275 6.63641L3.60039 2.27986H1.91666C1.29074 2.27986 0.783325 1.77245 0.783325 1.14653C0.783325 0.520605 1.29074 0.0131942 1.91666 0.0131942H3.65821C3.66672 0.0131942 3.67531 0.0131916 3.68399 0.0131889C3.82499 0.0131466 3.98728 0.0130977 4.13023 0.0240399ZM6.6432 7.61319L7.87074 16.6356C7.96207 17.3069 8.02274 17.7471 8.09506 18.0833C8.1644 18.4056 8.22822 18.5473 8.28411 18.6353C8.44257 18.8848 8.66973 19.0831 8.93828 19.2065C9.033 19.25 9.18201 19.2942 9.51076 19.3194C9.85364 19.3458 10.298 19.3465 10.9755 19.3465H22.386C23.0311 19.3465 23.4532 19.3458 23.7796 19.3214C24.0918 19.2981 24.2351 19.2574 24.3279 19.2165C24.5882 19.1019 24.8116 18.9171 24.9729 18.6828C25.0304 18.5993 25.0972 18.4661 25.1785 18.1638C25.2636 17.8477 25.3433 17.4332 25.464 16.7995L27.2137 7.61319H6.6432ZM27.3014 7.10829C27.3014 7.10531 27.3016 7.10374 27.3016 7.10374L27.3014 7.10829ZM8.78333 26.4799C8.78333 25.1176 9.88769 24.0132 11.25 24.0132C12.6123 24.0132 13.7167 25.1176 13.7167 26.4799C13.7167 27.8422 12.6123 28.9465 11.25 28.9465C9.88769 28.9465 8.78333 27.8422 8.78333 26.4799ZM19.45 26.4799C19.45 25.1176 20.5544 24.0132 21.9167 24.0132C23.279 24.0132 24.3833 25.1176 24.3833 26.4799C24.3833 27.8422 23.279 28.9465 21.9167 28.9465C20.5544 28.9465 19.45 27.8422 19.45 26.4799Z" fill="white"/>
</svg>
