<svg width="24" height="24" viewBox="0 0 24 24" fill="none" xmlns="http://www.w3.org/2000/svg">
<g id="Icons/AlertTriangle">
<path id="Icon (Stroke)" fill-rule="evenodd" clip-rule="evenodd" d="M11.1498 8.99999C11.1498 8.53054 11.5303 8.14999 11.9998 8.14999C12.4692 8.14999 12.8498 8.53054 12.8498 8.99999V13C12.8498 13.4694 12.4692 13.85 11.9998 13.85C11.5303 13.85 11.1498 13.4694 11.1498 13V8.99999ZM11.1498 17C11.1498 16.5305 11.5303 16.15 11.9998 16.15H12.0098C12.4792 16.15 12.8598 16.5305 12.8598 17C12.8598 17.4694 12.4792 17.85 12.0098 17.85H11.9998C11.5303 17.85 11.1498 17.4694 11.1498 17ZM12.4061 2.58211C12.1474 2.4671 11.8521 2.4671 11.5935 2.58211C11.2969 2.71396 11.0696 3.10655 10.6151 3.89171L2.39019 18.0983C1.93398 18.8863 1.70588 19.2803 1.73959 19.6037C1.769 19.8857 1.91677 20.142 2.14613 20.3088C2.40908 20.5 2.86435 20.5 3.77487 20.5H20.2246C21.1352 20.5 21.5904 20.5 21.8534 20.3088C22.0827 20.142 22.2305 19.8857 22.2599 19.6037C22.2936 19.2803 22.0655 18.8863 21.6093 18.0983L13.3844 3.89171C12.9299 3.10654 12.7026 2.71396 12.4061 2.58211ZM3.94832 18.8L11.9998 4.89295L20.0512 18.8H3.94832Z" fill="#DC1919"/>
</g>
</svg>
