<svg width="12" height="13" viewBox="0 0 12 13" fill="none" xmlns="http://www.w3.org/2000/svg">
<path d="M6.82498 9.53114L10.039 6.23947C10.1925 6.08767 10.398 6.00368 10.6114 6.00558C10.8247 6.00748 11.0288 6.09512 11.1796 6.24962C11.3305 6.40413 11.4161 6.61314 11.4179 6.83164C11.4198 7.05014 11.3378 7.26064 11.1896 7.41781L6.58657 12.132C6.51118 12.2096 6.42155 12.2713 6.32282 12.3133C6.22409 12.3554 6.11822 12.377 6.0113 12.377C5.90438 12.377 5.79851 12.3554 5.69978 12.3133C5.60105 12.2713 5.51142 12.2096 5.43603 12.132L0.833042 7.41781C0.755327 7.34093 0.693339 7.24898 0.650695 7.14731C0.608051 7.04564 0.585605 6.93629 0.584666 6.82564C0.583727 6.71499 0.604314 6.60526 0.645227 6.50284C0.686139 6.40043 0.746557 6.30739 0.822956 6.22914C0.899355 6.1509 0.990204 6.08902 1.0902 6.04712C1.1902 6.00522 1.29735 5.98414 1.40539 5.9851C1.51342 5.98606 1.6202 6.00905 1.71947 6.05272C1.81874 6.0964 1.90853 6.15988 1.98358 6.23947L5.19762 9.53114L5.19762 1.54281C5.19762 1.32179 5.28335 1.10983 5.43594 0.95355C5.58854 0.79727 5.7955 0.709473 6.0113 0.709473C6.2271 0.709473 6.43406 0.79727 6.58666 0.95355C6.73925 1.10983 6.82498 1.32179 6.82498 1.54281L6.82498 9.53114Z" fill="#4D4D4D"/>
</svg>
