<svg width="24" height="24" viewBox="0 0 24 24" fill="none" xmlns="http://www.w3.org/2000/svg">
<path d="M8.41504 12.4884L12.365 16.3453C12.5472 16.5294 12.648 16.7761 12.6457 17.0321C12.6434 17.2881 12.5383 17.533 12.3529 17.714C12.1674 17.895 11.9166 17.9977 11.6544 18C11.3922 18.0022 11.1396 17.9038 10.951 17.7259L5.29404 12.2023C5.20085 12.1119 5.1269 12.0043 5.07644 11.8858C5.02598 11.7673 5 11.6403 5 11.512C5 11.3837 5.02598 11.2566 5.07644 11.1382C5.1269 11.0197 5.20085 10.9121 5.29404 10.8217L10.951 5.29809C11.0433 5.20483 11.1536 5.13044 11.2756 5.07927C11.3976 5.0281 11.5289 5.00116 11.6616 5.00004C11.7944 4.99891 11.9261 5.02361 12.049 5.07271C12.1719 5.1218 12.2835 5.19431 12.3774 5.28599C12.4713 5.37766 12.5456 5.48668 12.5959 5.60668C12.6461 5.72668 12.6714 5.85525 12.6703 5.9849C12.6691 6.11455 12.6415 6.24267 12.5891 6.3618C12.5367 6.48093 12.4605 6.58867 12.365 6.67874L8.41504 10.5356L18.001 10.5356C18.2663 10.5356 18.5206 10.6385 18.7081 10.8216C18.8957 11.0047 19.001 11.253 19.001 11.512C19.001 11.771 18.8957 12.0193 18.7081 12.2024C18.5206 12.3855 18.2663 12.4884 18.001 12.4884L8.41504 12.4884Z" fill="#0D2EA0"/>
</svg>
