<svg width="14" height="13" viewBox="0 0 14 13" fill="none" xmlns="http://www.w3.org/2000/svg">
<path d="M3.41498 7.48841L7.36498 11.3453C7.54713 11.5294 7.64793 11.7761 7.64565 12.0321C7.64337 12.2881 7.5382 12.533 7.3528 12.714C7.16739 12.895 6.91657 12.9977 6.65438 13C6.39218 13.0022 6.13958 12.9038 5.95098 12.7259L0.293977 7.20232C0.200792 7.11186 0.126843 7.00429 0.0763813 6.88582C0.0259195 6.76735 -5.76182e-05 6.64031 -5.76069e-05 6.512C-5.75957e-05 6.38369 0.0259196 6.25664 0.0763813 6.13817C0.126843 6.0197 0.200792 5.91214 0.293977 5.82167L5.95098 0.298087C6.04322 0.204829 6.15357 0.130445 6.27557 0.0792716C6.39758 0.0280984 6.5288 0.00116283 6.66158 3.65517e-05C6.79436 -0.00109068 6.92604 0.0236143 7.04893 0.0727094C7.17183 0.121805 7.28348 0.194307 7.37737 0.285985C7.47126 0.377663 7.54552 0.486681 7.5958 0.606679C7.64608 0.726677 7.67138 0.855252 7.67023 0.9849C7.66907 1.11455 7.64149 1.24267 7.58908 1.3618C7.53667 1.48093 7.46049 1.58867 7.36498 1.67874L3.41498 5.53558L13.001 5.53558C13.2662 5.53558 13.5205 5.63845 13.7081 5.82157C13.8956 6.00468 14.001 6.25304 14.001 6.512C14.001 6.77096 13.8956 7.01932 13.7081 7.20243C13.5205 7.38554 13.2662 7.48841 13.001 7.48841L3.41498 7.48841Z" fill="white"/>
</svg>
