<svg width="44" height="44" viewBox="0 0 44 44" fill="none" xmlns="http://www.w3.org/2000/svg">
<circle cx="22" cy="22" r="22" fill="#F5F5F5"/>
<path d="M18.7138 22.4477L22.3346 25.9832C22.5016 26.152 22.594 26.3781 22.5919 26.6127C22.5898 26.8474 22.4934 27.0719 22.3234 27.2378C22.1535 27.4038 21.9236 27.4979 21.6832 27.5C21.4429 27.502 21.2113 27.4118 21.0384 27.2487L15.8529 22.1855C15.7674 22.1025 15.6996 22.0039 15.6534 21.8953C15.6071 21.7867 15.5833 21.6703 15.5833 21.5527C15.5833 21.435 15.6071 21.3186 15.6534 21.21C15.6996 21.1014 15.7674 21.0028 15.8529 20.9199L21.0384 15.8566C21.123 15.7711 21.2241 15.7029 21.336 15.656C21.4478 15.6091 21.5681 15.5844 21.6898 15.5834C21.8115 15.5823 21.9322 15.605 22.0449 15.65C22.1575 15.695 22.2599 15.7614 22.346 15.8455C22.432 15.9295 22.5001 16.0295 22.5462 16.1395C22.5923 16.2495 22.6155 16.3673 22.6144 16.4862C22.6134 16.605 22.5881 16.7224 22.54 16.8316C22.492 16.9408 22.4222 17.0396 22.3346 17.1222L18.7138 20.6576L27.5009 20.6576C27.7441 20.6576 27.9772 20.7519 28.1491 20.9198C28.321 21.0876 28.4176 21.3153 28.4176 21.5527C28.4176 21.79 28.321 22.0177 28.1491 22.1856C27.9772 22.3534 27.7441 22.4477 27.5009 22.4477L18.7138 22.4477Z" fill="#4D4D4D"/>
</svg>
