<svg width="20" height="21" viewBox="0 0 20 21" fill="none" xmlns="http://www.w3.org/2000/svg">
<path d="M9.17697 7.55541L5.96294 10.8471C5.80948 10.9989 5.60394 11.0829 5.39059 11.081C5.17725 11.0791 4.97317 10.9914 4.82231 10.8369C4.67144 10.6824 4.58587 10.4734 4.58401 10.2549C4.58216 10.0364 4.66418 9.82591 4.81239 9.66874L9.41538 4.95457C9.49077 4.87692 9.58041 4.8153 9.67913 4.77324C9.77786 4.73119 9.88373 4.70955 9.99065 4.70955C10.0976 4.70955 10.2034 4.73119 10.3022 4.77324C10.4009 4.8153 10.4905 4.87692 10.5659 4.95457L15.1689 9.66874C15.2466 9.74561 15.3086 9.83757 15.3513 9.93924C15.3939 10.0409 15.4163 10.1503 15.4173 10.2609C15.4182 10.3716 15.3976 10.4813 15.3567 10.5837C15.3158 10.6861 15.2554 10.7792 15.179 10.8574C15.1026 10.9356 15.0117 10.9975 14.9118 11.0394C14.8118 11.0813 14.7046 11.1024 14.5966 11.1015C14.4885 11.1005 14.3818 11.0775 14.2825 11.0338C14.1832 10.9902 14.0934 10.9267 14.0184 10.8471L10.8043 7.55541L10.8043 15.5437C10.8043 15.7648 10.7186 15.9767 10.566 16.133C10.4134 16.2893 10.2065 16.3771 9.99065 16.3771C9.77485 16.3771 9.56789 16.2893 9.41529 16.133C9.2627 15.9767 9.17697 15.7648 9.17697 15.5437L9.17697 7.55541Z" fill="#4D4D4D"/>
</svg>
