<svg width="44" height="44" viewBox="0 0 44 44" fill="none" xmlns="http://www.w3.org/2000/svg">
<circle cx="22" cy="22" r="22" fill="#F5F5F5"/>
<path d="M25.2871 20.6355L21.6663 17.1001C21.4993 16.9313 21.4069 16.7052 21.409 16.4705C21.4111 16.2358 21.5075 16.0114 21.6775 15.8454C21.8474 15.6795 22.0773 15.5853 22.3177 15.5833C22.558 15.5812 22.7896 15.6715 22.9625 15.8345L28.1481 20.8978C28.2335 20.9807 28.3013 21.0793 28.3475 21.1879C28.3938 21.2965 28.4176 21.413 28.4176 21.5306C28.4176 21.6482 28.3938 21.7647 28.3475 21.8733C28.3013 21.9819 28.2335 22.0805 28.1481 22.1634L22.9625 27.2267C22.8779 27.3122 22.7768 27.3803 22.6649 27.4273C22.5531 27.4742 22.4328 27.4989 22.3111 27.4999C22.1894 27.5009 22.0687 27.4783 21.956 27.4333C21.8434 27.3883 21.741 27.3218 21.655 27.2378C21.5689 27.1537 21.5008 27.0538 21.4547 26.9438C21.4086 26.8338 21.3854 26.7159 21.3865 26.5971C21.3876 26.4782 21.4128 26.3608 21.4609 26.2516C21.5089 26.1424 21.5788 26.0436 21.6663 25.9611L25.2871 22.4256H16.5C16.2569 22.4256 16.0237 22.3313 15.8518 22.1635C15.6799 21.9956 15.5833 21.768 15.5833 21.5306C15.5833 21.2932 15.6799 21.0655 15.8518 20.8977C16.0237 20.7298 16.2569 20.6355 16.5 20.6355H25.2871Z" fill="#4D4D4D"/>
</svg>
