<svg width="22" height="22" viewBox="0 0 22 22" fill="none" xmlns="http://www.w3.org/2000/svg">
<g id="barcode 1" clip-path="url(#clip0_20378_894)">
<g id="Group">
<g id="Group_2">
<path id="Vector" d="M3.66667 2.2H0.733333C0.328533 2.2 0 2.52853 0 2.93333V5.86667C0 6.27147 0.328533 6.6 0.733333 6.6C1.13813 6.6 1.46667 6.27147 1.46667 5.86667V3.66667H3.66667C4.07147 3.66667 4.4 3.33813 4.4 2.93333C4.4 2.52853 4.07147 2.2 3.66667 2.2Z" fill="white"/>
</g>
</g>
<g id="Group_3">
<g id="Group_4">
<path id="Vector_2" d="M21.2667 15.4C20.8619 15.4 20.5333 15.7285 20.5333 16.1333V18.3333H18.3333C17.9285 18.3333 17.6 18.6619 17.6 19.0667C17.6 19.4715 17.9285 19.8 18.3333 19.8H21.2667C21.6715 19.8 22 19.4715 22 19.0667V16.1333C22 15.7285 21.6715 15.4 21.2667 15.4Z" fill="white"/>
</g>
</g>
<g id="Group_5">
<g id="Group_6">
<path id="Vector_3" d="M21.2667 2.2H18.3333C17.9285 2.2 17.6 2.52853 17.6 2.93333C17.6 3.33813 17.9285 3.66667 18.3333 3.66667H20.5333V5.86667C20.5333 6.27147 20.8619 6.6 21.2667 6.6C21.6715 6.6 22 6.27147 22 5.86667V2.93333C22 2.52853 21.6715 2.2 21.2667 2.2Z" fill="white"/>
</g>
</g>
<g id="Group_7">
<g id="Group_8">
<path id="Vector_4" d="M3.66667 18.3333H1.46667V16.1333C1.46667 15.7285 1.13813 15.4 0.733333 15.4C0.328533 15.4 0 15.7285 0 16.1333V19.0667C0 19.4715 0.328533 19.8 0.733333 19.8H3.66667C4.07147 19.8 4.4 19.4715 4.4 19.0667C4.4 18.6619 4.07147 18.3333 3.66667 18.3333Z" fill="white"/>
</g>
</g>
<g id="Group_9">
<g id="Group_10">
<path id="Vector_5" d="M3.66667 5.13333C3.26187 5.13333 2.93333 5.46186 2.93333 5.86666V16.1333C2.93333 16.5381 3.26187 16.8667 3.66667 16.8667C4.07147 16.8667 4.4 16.5381 4.4 16.1333V5.86666C4.4 5.46186 4.07147 5.13333 3.66667 5.13333Z" fill="white"/>
</g>
</g>
<g id="Group_11">
<g id="Group_12">
<path id="Vector_6" d="M6.6 5.13333C6.1952 5.13333 5.86667 5.46186 5.86667 5.86666V13.2C5.86667 13.6048 6.1952 13.9333 6.6 13.9333C7.0048 13.9333 7.33334 13.6048 7.33334 13.2V5.86666C7.33334 5.46186 7.0048 5.13333 6.6 5.13333Z" fill="white"/>
</g>
</g>
<g id="Group_13">
<g id="Group_14">
<path id="Vector_7" d="M9.53334 5.13333C9.12854 5.13333 8.8 5.46186 8.8 5.86666V13.2C8.8 13.6048 9.12854 13.9333 9.53334 13.9333C9.93814 13.9333 10.2667 13.6048 10.2667 13.2V5.86666C10.2667 5.46186 9.93814 5.13333 9.53334 5.13333Z" fill="white"/>
</g>
</g>
<g id="Group_15">
<g id="Group_16">
<path id="Vector_8" d="M12.4667 5.13333C12.0619 5.13333 11.7333 5.46186 11.7333 5.86666V16.1333C11.7333 16.5381 12.0619 16.8667 12.4667 16.8667C12.8715 16.8667 13.2 16.5381 13.2 16.1333V5.86666C13.2 5.46186 12.8715 5.13333 12.4667 5.13333Z" fill="white"/>
</g>
</g>
<g id="Group_17">
<g id="Group_18">
<path id="Vector_9" d="M15.4 5.13333C14.9952 5.13333 14.6667 5.46186 14.6667 5.86666V13.2C14.6667 13.6048 14.9952 13.9333 15.4 13.9333C15.8048 13.9333 16.1333 13.6048 16.1333 13.2V5.86666C16.1333 5.46186 15.8048 5.13333 15.4 5.13333Z" fill="white"/>
</g>
</g>
<g id="Group_19">
<g id="Group_20">
<path id="Vector_10" d="M18.3333 5.13333C17.9285 5.13333 17.6 5.46186 17.6 5.86666V16.1333C17.6 16.5381 17.9285 16.8667 18.3333 16.8667C18.7381 16.8667 19.0667 16.5381 19.0667 16.1333V5.86666C19.0667 5.46186 18.7381 5.13333 18.3333 5.13333Z" fill="white"/>
</g>
</g>
<g id="Group_21">
<g id="Group_22">
<path id="Vector_11" d="M6.62934 15.4H6.61467C6.20987 15.4 5.88867 15.7285 5.88867 16.1333C5.88867 16.5381 6.22454 16.8667 6.62934 16.8667C7.03414 16.8667 7.36267 16.5381 7.36267 16.1333C7.36267 15.7285 7.03414 15.4 6.62934 15.4Z" fill="white"/>
</g>
</g>
<g id="Group_23">
<g id="Group_24">
<path id="Vector_12" d="M9.56267 15.4H9.54801C9.14321 15.4 8.82201 15.7285 8.82201 16.1333C8.82201 16.5381 9.15787 16.8667 9.56267 16.8667C9.96747 16.8667 10.296 16.5381 10.296 16.1333C10.296 15.7285 9.96747 15.4 9.56267 15.4Z" fill="white"/>
</g>
</g>
<g id="Group_25">
<g id="Group_26">
<path id="Vector_13" d="M15.4293 15.4H15.4147C15.0099 15.4 14.6887 15.7285 14.6887 16.1333C14.6887 16.5381 15.0245 16.8667 15.4293 16.8667C15.8341 16.8667 16.1627 16.5381 16.1627 16.1333C16.1627 15.7285 15.8341 15.4 15.4293 15.4Z" fill="white"/>
</g>
</g>
</g>
<defs>
<clipPath id="clip0_20378_894">
<rect width="22" height="22" fill="white"/>
</clipPath>
</defs>
</svg>
