<svg width="25" height="24" viewBox="0 0 25 24" fill="none" xmlns="http://www.w3.org/2000/svg">
<path d="M5.75 3C5.15326 3 4.58097 3.23705 4.15901 3.65901C3.73705 4.08097 3.5 4.65326 3.5 5.25L3.5 18.75C3.5 19.3467 3.73705 19.919 4.15901 20.341C4.58097 20.7629 5.15326 21 5.75 21H19.25C19.8467 21 20.419 20.7629 20.841 20.341C21.2629 19.919 21.5 19.3467 21.5 18.75V5.25C21.5 4.65326 21.2629 4.08097 20.841 3.65901C20.419 3.23705 19.8467 3 19.25 3H5.75ZM17.0337 8.59125C17.19 8.74735 17.2788 8.95849 17.2811 9.17935C17.2835 9.40021 17.1991 9.61316 17.0461 9.7725L12.5551 15.3863C12.4779 15.4694 12.3848 15.5361 12.2812 15.5824C12.1777 15.6287 12.0658 15.6537 11.9524 15.6558C11.839 15.6579 11.7263 15.6371 11.6211 15.5946C11.5159 15.5522 11.4203 15.489 11.3401 15.4087L8.3645 12.432C8.2816 12.3548 8.21511 12.2616 8.169 12.1581C8.12288 12.0546 8.09808 11.9429 8.09608 11.8296C8.09409 11.7163 8.11493 11.6038 8.15736 11.4987C8.1998 11.3936 8.26296 11.2982 8.34308 11.2181C8.4232 11.138 8.51864 11.0748 8.6237 11.0324C8.72876 10.9899 8.8413 10.9691 8.95459 10.9711C9.06788 10.9731 9.17961 10.9979 9.28311 11.044C9.3866 11.0901 9.47975 11.1566 9.557 11.2395L11.9128 13.5941L15.8199 8.616C15.8969 8.53271 15.9899 8.46582 16.0934 8.41931C16.1969 8.37281 16.3087 8.34765 16.4221 8.34534C16.5355 8.34303 16.6483 8.36361 16.7535 8.40587C16.8588 8.44812 16.9545 8.51117 17.0349 8.59125H17.0337Z" fill="#212121"/>
</svg>
