<svg width="24" height="24" viewBox="0 0 24 24" fill="none" xmlns="http://www.w3.org/2000/svg">
<g id="Icons/CheckboxFill">
<path id="Vector" d="M5.25 3C4.65326 3 4.08097 3.23705 3.65901 3.65901C3.23705 4.08097 3 4.65326 3 5.25L3 18.75C3 19.3467 3.23705 19.919 3.65901 20.341C4.08097 20.7629 4.65326 21 5.25 21H18.75C19.3467 21 19.919 20.7629 20.341 20.341C20.7629 19.919 21 19.3467 21 18.75V5.25C21 4.65326 20.7629 4.08097 20.341 3.65901C19.919 3.23705 19.3467 3 18.75 3H5.25ZM16.5337 8.59125C16.69 8.74735 16.7788 8.95849 16.7811 9.17935C16.7835 9.40021 16.6991 9.61316 16.5461 9.7725L12.0551 15.3863C11.9779 15.4694 11.8848 15.5361 11.7812 15.5824C11.6777 15.6287 11.5658 15.6537 11.4524 15.6558C11.339 15.6579 11.2263 15.6371 11.1211 15.5946C11.0159 15.5522 10.9203 15.489 10.8401 15.4087L7.8645 12.432C7.7816 12.3548 7.71511 12.2616 7.669 12.1581C7.62288 12.0546 7.59808 11.9429 7.59608 11.8296C7.59409 11.7163 7.61493 11.6038 7.65736 11.4987C7.6998 11.3936 7.76296 11.2982 7.84308 11.2181C7.9232 11.138 8.01864 11.0748 8.1237 11.0324C8.22876 10.9899 8.3413 10.9691 8.45459 10.9711C8.56788 10.9731 8.67961 10.9979 8.78311 11.044C8.8866 11.0901 8.97975 11.1566 9.057 11.2395L11.4128 13.5941L15.3199 8.616C15.3969 8.53271 15.4899 8.46582 15.5934 8.41931C15.6969 8.37281 15.8087 8.34765 15.9221 8.34534C16.0355 8.34303 16.1483 8.36361 16.2535 8.40587C16.3588 8.44812 16.4545 8.51117 16.5349 8.59125H16.5337Z" fill="#212121"/>
</g>
</svg>
