<svg width="25" height="24" viewBox="0 0 25 24" fill="none" xmlns="http://www.w3.org/2000/svg">
<rect x="4.5" y="4" width="16" height="16" fill="white"/>
<path fill-rule="evenodd" clip-rule="evenodd" d="M4.21244 3.71244C4.66861 3.25627 5.28731 3 5.93243 3H19.0676C19.7127 3 20.3314 3.25627 20.7876 3.71244C21.2437 4.16861 21.5 4.78731 21.5 5.43243V18.5676C21.5 19.2127 21.2437 19.8314 20.7876 20.2876C20.3314 20.7437 19.7127 21 19.0676 21H5.93243C5.28731 21 4.66861 20.7437 4.21244 20.2876C3.75627 19.8314 3.5 19.2127 3.5 18.5676V5.43243C3.5 4.78731 3.75627 4.16861 4.21244 3.71244ZM19.8416 4.65844C19.6363 4.45316 19.3579 4.33784 19.0676 4.33784H5.93243C5.64213 4.33784 5.36371 4.45316 5.15844 4.65844C4.95316 4.86371 4.83784 5.14213 4.83784 5.43243V18.5676C4.83784 18.8579 4.95316 19.1363 5.15844 19.3416C5.36371 19.5468 5.64213 19.6622 5.93243 19.6622H19.0676C19.3579 19.6622 19.6363 19.5468 19.8416 19.3416C20.0468 19.1363 20.1622 18.8579 20.1622 18.5676V5.43243C20.1622 5.14213 20.0468 4.86371 19.8416 4.65844Z" fill="#777777"/>
</svg>
