<svg width="17" height="16" viewBox="0 0 17 16" fill="none" xmlns="http://www.w3.org/2000/svg">
<g id="Icons/Clock">
<path id="Icon (Stroke)" fill-rule="evenodd" clip-rule="evenodd" d="M8.50002 1.99999C5.18631 1.99999 2.50002 4.68628 2.50002 7.99999C2.50002 11.3137 5.18631 14 8.50002 14C11.8137 14 14.5 11.3137 14.5 7.99999C14.5 4.68628 11.8137 1.99999 8.50002 1.99999ZM1.16669 7.99999C1.16669 3.9499 4.44993 0.666656 8.50002 0.666656C12.5501 0.666656 15.8334 3.9499 15.8334 7.99999C15.8334 12.0501 12.5501 15.3333 8.50002 15.3333C4.44993 15.3333 1.16669 12.0501 1.16669 7.99999ZM8.50002 3.33332C8.86821 3.33332 9.16669 3.6318 9.16669 3.99999V7.58797L11.4648 8.73704C11.7941 8.9017 11.9276 9.30215 11.763 9.63146C11.5983 9.96078 11.1979 10.0943 10.8685 9.92961L8.20188 8.59627C7.97602 8.48335 7.83335 8.2525 7.83335 7.99999V3.99999C7.83335 3.6318 8.13183 3.33332 8.50002 3.33332Z" fill="#CCCCCC"/>
</g>
</svg>
