<svg width="40" height="40" viewBox="0 0 40 40" fill="none" xmlns="http://www.w3.org/2000/svg">
<path d="M22.6918 20.001L29.419 13.2719C29.6008 13.0964 29.7458 12.8864 29.8455 12.6542C29.9452 12.4221 29.9977 12.1723 29.9999 11.9197C30.0021 11.667 29.954 11.4164 29.8583 11.1825C29.7626 10.9486 29.6213 10.7362 29.4426 10.5575C29.2639 10.3788 29.0515 10.2375 28.8176 10.1418C28.5837 10.0461 28.3331 9.99797 28.0804 10.0002C27.8278 10.0024 27.578 10.0549 27.3459 10.1546C27.1137 10.2543 26.9037 10.3993 26.7282 10.5811L19.999 17.3083L13.2719 10.5811C13.0963 10.3993 12.8863 10.2543 12.6541 10.1546C12.422 10.0549 12.1722 10.0024 11.9196 10.0002C11.6669 9.99797 11.4163 10.0461 11.1824 10.1418C10.9485 10.2375 10.7361 10.3788 10.5574 10.5575C10.3787 10.7362 10.2374 10.9486 10.1417 11.1825C10.046 11.4164 9.99788 11.667 10.0001 11.9197C10.0023 12.1723 10.0548 12.4221 10.1545 12.6542C10.2542 12.8864 10.3992 13.0964 10.581 13.2719L17.3082 19.9991L10.581 26.7282C10.3992 26.9038 10.2542 27.1138 10.1545 27.346C10.0548 27.5781 10.0023 27.8278 10.0001 28.0805C9.99788 28.3332 10.046 28.5838 10.1417 28.8177C10.2374 29.0516 10.3787 29.264 10.5574 29.4427C10.7361 29.6214 10.9485 29.7627 11.1824 29.8584C11.4163 29.9541 11.6669 30.0022 11.9196 30C12.1722 29.9978 12.422 29.9453 12.6541 29.8456C12.8863 29.7459 13.0963 29.6009 13.2719 29.4191L19.999 22.6919L26.7282 29.4191C26.9037 29.6009 27.1137 29.7459 27.3459 29.8456C27.578 29.9453 27.8278 29.9978 28.0804 30C28.3331 30.0022 28.5837 29.9541 28.8176 29.8584C29.0515 29.7627 29.2639 29.6214 29.4426 29.4427C29.6213 29.264 29.7626 29.0516 29.8583 28.8177C29.954 28.5838 30.0021 28.3332 29.9999 28.0805C29.9977 27.8278 29.9452 27.5781 29.8455 27.346C29.7458 27.1138 29.6008 26.9038 29.419 26.7282L22.6918 19.9991V20.001Z" fill="#212121"/>
</svg>
