<svg width="24" height="24" viewBox="0 0 24 24" fill="none" xmlns="http://www.w3.org/2000/svg">
<g id="Icons/Download">
<path id="Icon (Stroke)" fill-rule="evenodd" clip-rule="evenodd" d="M8.55923 3.69063C8.3921 3.73421 8.227 3.81493 7.84393 4.01476C4.96314 5.51753 3 8.53033 3 12C3 16.9706 7.02944 21 12 21C16.9706 21 21 16.9706 21 12C21 8.66999 19.192 5.76108 16.4993 4.20343C16.0212 3.92688 15.8579 3.31516 16.1344 2.8371C16.4109 2.35903 17.0227 2.19567 17.5007 2.47222C20.786 4.37266 23 7.92719 23 12C23 18.0751 18.0751 23 12 23C5.92487 23 1 18.0751 1 12C1 7.75616 3.40353 4.07533 6.91892 2.24152C6.93362 2.23386 6.94839 2.22614 6.96323 2.21839C7.28638 2.04959 7.64542 1.86204 8.05455 1.75535C8.51449 1.6354 8.97871 1.62803 9.53704 1.70367C10.0495 1.7731 10.6077 2.03404 11.0428 2.29779C11.4779 2.56154 11.9674 2.93579 12.266 3.35804C13.0019 4.39885 13.0011 5.39442 13.0001 6.65543C13 6.70323 13 6.75142 13 6.8V13.5858L15.2929 11.2929C15.6834 10.9024 16.3166 10.9024 16.7071 11.2929C17.0976 11.6834 17.0976 12.3166 16.7071 12.7071L12.7071 16.7071C12.3166 17.0976 11.6834 17.0976 11.2929 16.7071L7.29289 12.7071C6.90237 12.3166 6.90237 11.6834 7.29289 11.2929C7.68342 10.9024 8.31658 10.9024 8.70711 11.2929L11 13.5858V6.8C11 5.34874 10.9702 4.98957 10.633 4.51275C10.5658 4.41772 10.3459 4.21411 10.006 4.00806C9.66608 3.802 9.38386 3.70119 9.26852 3.68556C8.88196 3.63319 8.69433 3.65539 8.55923 3.69063Z" fill="#ECF2FE"/>
</g>
</svg>
