<svg width="40" height="40" viewBox="0 0 40 40" fill="none" xmlns="http://www.w3.org/2000/svg">
<g id="Icons/EmailOpen">
<path id="Icon (Stroke)" fill-rule="evenodd" clip-rule="evenodd" d="M18.8573 1.60794C19.6088 1.43155 20.3909 1.43155 21.1424 1.60794C22.0009 1.80944 22.7639 2.30692 23.6321 2.87293C23.6925 2.91228 23.7533 2.95197 23.8148 2.99191L35.898 10.846C35.9269 10.8648 35.9562 10.8838 35.9857 10.903L36.3615 11.1473C36.3917 11.1669 36.4228 11.187 36.4547 11.2076C36.7977 11.4288 37.2291 11.7072 37.5577 12.1004C37.8421 12.4407 38.0556 12.8343 38.186 13.2581C38.3366 13.7479 38.3349 14.2614 38.3335 14.6695C38.3333 14.7074 38.3332 14.7445 38.3332 14.7805V27.0689C38.3332 28.4105 38.3333 29.5178 38.2596 30.4197C38.183 31.3566 38.0187 32.2177 37.6066 33.0266C36.9674 34.281 35.9476 35.3009 34.6931 35.9401C33.8843 36.3522 33.0231 36.5165 32.0863 36.593C31.1843 36.6667 30.077 36.6667 28.7354 36.6667H11.2643C9.92274 36.6667 8.81548 36.6667 7.9135 36.593C6.97667 36.5165 6.1155 36.3522 5.30661 35.9401C4.05219 35.3009 3.03232 34.281 2.39317 33.0266C1.98102 32.2177 1.81674 31.3566 1.7402 30.4197C1.66651 29.5177 1.66652 28.4105 1.66654 27.0689L1.66655 14.7805C1.66655 14.7445 1.66642 14.7074 1.66629 14.6695C1.6649 14.2614 1.66316 13.7479 1.81378 13.2581C1.94411 12.8343 2.1577 12.4407 2.44204 12.1004C2.77064 11.7072 3.20208 11.4288 3.54503 11.2076C3.57692 11.187 3.60805 11.1669 3.63826 11.1473L4.01408 10.903C4.04357 10.8838 4.07285 10.8648 4.10182 10.8459C4.11622 10.8366 4.13055 10.8273 4.14478 10.818L16.185 2.99192C16.2464 2.95197 16.3073 2.91229 16.3676 2.87293C17.2358 2.30692 17.9989 1.80944 18.8573 1.60794ZM18.0016 5.78673L6.39138 13.3334L18.0016 20.88C19.1605 21.6333 19.4036 21.7631 19.619 21.8136C19.8695 21.8724 20.1302 21.8724 20.3807 21.8136C20.5962 21.7631 20.8392 21.6333 21.9982 20.88L33.6084 13.3334L21.9982 5.78673C20.8392 5.03342 20.5962 4.90365 20.3807 4.85308C20.1302 4.79428 19.8695 4.79428 19.619 4.85308C19.4036 4.90365 19.1605 5.03342 18.0016 5.78673ZM34.9999 16.4045L23.8148 23.6748C23.7534 23.7147 23.6925 23.7544 23.6322 23.7938C22.764 24.3598 22.0009 24.8573 21.1424 25.0588C20.3909 25.2352 19.6088 25.2352 18.8573 25.0588C17.9989 24.8573 17.2358 24.3598 16.3676 23.7938C16.3073 23.7544 16.2464 23.7147 16.185 23.6748L4.99988 16.4045V27C4.99988 28.4277 5.00117 29.3981 5.06246 30.1483C5.12216 30.879 5.23037 31.2527 5.36319 31.5133C5.68277 32.1405 6.1927 32.6505 6.81991 32.97C7.08058 33.1029 7.45425 33.2111 8.18494 33.2708C8.93509 33.3321 9.90558 33.3334 11.3332 33.3334H28.6665C30.0942 33.3334 31.0647 33.3321 31.8148 33.2708C32.5455 33.2111 32.9192 33.1029 33.1798 32.97C33.8071 32.6505 34.317 32.1405 34.6366 31.5133C34.7694 31.2527 34.8776 30.879 34.9373 30.1483C34.9986 29.3981 34.9999 28.4277 34.9999 27V16.4045Z" fill="white"/>
</g>
</svg>
