<svg width="20" height="20" viewBox="0 0 20 20" fill="none" xmlns="http://www.w3.org/2000/svg">
<g id="Icons/EmailOpen">
<path id="Icon (Stroke)" fill-rule="evenodd" clip-rule="evenodd" d="M9.42866 0.803941C9.8044 0.715744 10.1955 0.715744 10.5712 0.803941C11.0004 0.904689 11.382 1.15343 11.8161 1.43643C11.8462 1.45611 11.8767 1.47596 11.9074 1.49593L17.949 5.42295C17.9635 5.43236 17.9781 5.44187 17.9929 5.45147L18.1807 5.5736C18.1959 5.58342 18.2114 5.59346 18.2274 5.60375C18.3988 5.71438 18.6146 5.85356 18.7789 6.05018C18.921 6.22031 19.0278 6.4171 19.093 6.62902C19.1683 6.87393 19.1674 7.13065 19.1667 7.33472C19.1667 7.35369 19.1666 7.37222 19.1666 7.39023V13.5344C19.1666 14.2052 19.1666 14.7588 19.1298 15.2098C19.0915 15.6783 19.0094 16.1088 18.8033 16.5133C18.4837 17.1405 17.9738 17.6504 17.3466 17.97C16.9421 18.1761 16.5115 18.2582 16.0431 18.2965C15.5921 18.3333 15.0385 18.3333 14.3677 18.3333H5.63217C4.96137 18.3333 4.40774 18.3333 3.95675 18.2965C3.48834 18.2582 3.05775 18.1761 2.6533 17.97C2.0261 17.6504 1.51616 17.1405 1.19658 16.5133C0.990508 16.1088 0.908372 15.6783 0.870101 15.2098C0.833253 14.7588 0.833262 14.2052 0.833272 13.5344L0.833273 7.39023C0.833273 7.37222 0.83321 7.35369 0.833145 7.33471C0.832451 7.13065 0.831578 6.87393 0.90689 6.62902C0.972056 6.4171 1.07885 6.22031 1.22102 6.05018C1.38532 5.85356 1.60104 5.71438 1.77251 5.60375C1.78846 5.59346 1.80403 5.58342 1.81913 5.5736L2.00704 5.45146C2.02178 5.44186 2.03643 5.43235 2.05091 5.42294C2.05811 5.41826 2.06528 5.41361 2.07239 5.40898L8.09248 1.49593C8.1232 1.47596 8.15364 1.45611 8.18382 1.43644C8.61791 1.15343 8.99943 0.904689 9.42866 0.803941ZM9.00079 2.89333L3.19569 6.66665L9.00079 10.44C9.58026 10.8166 9.70179 10.8815 9.80951 10.9068C9.93476 10.9362 10.0651 10.9362 10.1904 10.9068C10.2981 10.8815 10.4196 10.8166 10.9991 10.44L16.8042 6.66665L10.9991 2.89333C10.4196 2.51668 10.2981 2.45179 10.1904 2.42651C10.0651 2.39711 9.93476 2.39711 9.80951 2.42651C9.70179 2.45179 9.58026 2.51668 9.00079 2.89333ZM17.4999 8.20222L11.9074 11.8374C11.8767 11.8573 11.8463 11.8772 11.8161 11.8969C11.382 12.1799 11.0004 12.4286 10.5712 12.5294C10.1955 12.6176 9.8044 12.6176 9.42866 12.5294C8.99943 12.4286 8.6179 12.1799 8.18382 11.8969C8.15363 11.8772 8.1232 11.8573 8.09248 11.8374L2.49994 8.20222V13.5C2.49994 14.2138 2.50059 14.699 2.53123 15.0741C2.56108 15.4395 2.61519 15.6263 2.68159 15.7566C2.84138 16.0702 3.09635 16.3252 3.40996 16.485C3.54029 16.5514 3.72712 16.6055 4.09247 16.6354C4.46755 16.666 4.95279 16.6666 5.66661 16.6666H14.3333C15.0471 16.6666 15.5323 16.666 15.9074 16.6354C16.2728 16.6055 16.4596 16.5514 16.5899 16.485C16.9035 16.3252 17.1585 16.0702 17.3183 15.7566C17.3847 15.6263 17.4388 15.4395 17.4686 15.0741C17.4993 14.699 17.4999 14.2138 17.4999 13.5V8.20222Z" fill="#777777"/>
</g>
</svg>
