<svg width="60" height="60" viewBox="0 0 60 60" fill="none" xmlns="http://www.w3.org/2000/svg">
<g id="Delivery" clip-path="url(#clip0_20620_14105)">
<g id="Group">
<path id="Vector" d="M60 0.00749969H7.03125V35.6033C2.86031 37.7455 0 42.0933 0 47.0968C0 54.2157 5.79023 60.0075 12.9074 60.0075C17.9036 60.0075 22.2456 57.1533 24.39 52.9896H60V0.00749969ZM29.4402 3.524H37.5909V16.0247L35.5528 14.9284L33.5147 16.0872L31.4763 14.9283L29.4401 16.0242V3.524H29.4402ZM12.9074 56.491C7.72875 56.491 3.51562 52.2767 3.51562 47.0968C3.51562 41.9168 7.72875 37.7025 12.9074 37.7025C18.086 37.7025 22.2993 41.9167 22.2993 47.0968C22.2993 52.2768 18.086 56.491 12.9074 56.491ZM56.4844 49.473H25.5948C25.7387 48.7025 25.8148 47.9084 25.8148 47.0968C25.8148 39.9778 20.0245 34.186 12.9073 34.186C12.1011 34.186 11.3123 34.2611 10.5468 34.4032V3.524H25.9245V17.8267L29.1287 20.185L31.4297 18.9467L33.5147 20.1321L35.5999 18.9466L37.902 20.1847L41.1067 17.8268V3.524H56.4844V49.473Z" fill="#CCCCCC"/>
<path id="Vector_2" d="M15.4341 42.0828L12.9072 44.6103L10.3804 42.0828L7.89453 44.5692L10.4213 47.0968L7.89453 49.6242L10.3804 52.1107L12.9072 49.5833L15.4341 52.1107L17.9199 49.6242L15.3931 47.0968L17.9199 44.5692L15.4341 42.0828Z" fill="#CCCCCC"/>
</g>
</g>
<defs>
<clipPath id="clip0_20620_14105">
<rect width="60" height="60" fill="white"/>
</clipPath>
</defs>
</svg>
