<svg width="17" height="16" viewBox="0 0 17 16" fill="none" xmlns="http://www.w3.org/2000/svg">
<g id="Icons/Printer">
<path id="Icon (Stroke)" fill-rule="evenodd" clip-rule="evenodd" d="M6.60766 0.666657H10.3924C10.7438 0.666645 11.047 0.666635 11.2967 0.687037C11.5603 0.708571 11.8224 0.756115 12.0747 0.884645C12.451 1.07639 12.757 1.38235 12.9487 1.75868C13.0772 2.01093 13.1248 2.27308 13.1463 2.53664C13.1667 2.78635 13.1667 3.08952 13.1667 3.44095V4.01808C13.2245 4.02128 13.2805 4.02503 13.3346 4.02945C13.7093 4.06007 14.0538 4.12578 14.3773 4.29064C14.8791 4.5463 15.287 4.95425 15.5427 5.45602C15.7076 5.77957 15.7733 6.12404 15.8039 6.49877C15.8334 6.85957 15.8334 7.30247 15.8334 7.83911V9.33332C15.8334 9.36435 15.8334 9.39491 15.8334 9.42504C15.8337 9.9553 15.8339 10.3491 15.7425 10.6902C15.4959 11.6104 14.7771 12.3292 13.8569 12.5758C13.6519 12.6307 13.4279 12.6526 13.1667 12.6612C13.1665 12.9695 13.1647 13.2382 13.1463 13.4633C13.1248 13.7269 13.0772 13.9891 12.9487 14.2413C12.757 14.6176 12.451 14.9236 12.0747 15.1153C11.8224 15.2439 11.5603 15.2914 11.2967 15.3129C11.047 15.3333 10.7438 15.3333 10.3924 15.3333H6.60765C6.25622 15.3333 5.95305 15.3333 5.70334 15.3129C5.43977 15.2914 5.17763 15.2439 4.92538 15.1153C4.54905 14.9236 4.24309 14.6176 4.05134 14.2413C3.92281 13.9891 3.87527 13.7269 3.85374 13.4633C3.83534 13.2382 3.83354 12.9695 3.83337 12.6612C3.57216 12.6526 3.34815 12.6307 3.14317 12.5758C2.22293 12.3292 1.50413 11.6104 1.25755 10.6902C1.16616 10.3491 1.16637 9.9553 1.16666 9.42505C1.16667 9.39492 1.16669 9.36435 1.16669 9.33332L1.16669 7.83913C1.16668 7.30248 1.16667 6.85957 1.19615 6.49877C1.22677 6.12404 1.29248 5.77957 1.45734 5.45602C1.713 4.95425 2.12095 4.5463 2.62272 4.29064C2.94627 4.12578 3.29074 4.06007 3.66547 4.02945C3.71957 4.02503 3.77552 4.02128 3.83336 4.01808L3.83336 3.44096C3.83334 3.08953 3.83333 2.78635 3.85374 2.53664C3.87527 2.27308 3.92281 2.01093 4.05134 1.75868C4.24309 1.38235 4.54905 1.07639 4.92538 0.884645C5.17763 0.756115 5.43977 0.708571 5.70334 0.687037C5.95305 0.666635 6.25623 0.666645 6.60766 0.666657ZM5.16669 3.99999H11.8334V3.46666C11.8334 3.08229 11.8328 2.83411 11.8174 2.64522C11.8026 2.46411 11.7775 2.39696 11.7607 2.364C11.6968 2.23856 11.5948 2.13657 11.4694 2.07265C11.4364 2.05586 11.3692 2.03074 11.1881 2.01594C10.9992 2.00051 10.7511 1.99999 10.3667 1.99999H6.63336C6.24899 1.99999 6.00081 2.00051 5.81191 2.01594C5.63081 2.03074 5.56366 2.05586 5.5307 2.07265C5.40526 2.13657 5.30327 2.23856 5.23935 2.364C5.22256 2.39696 5.19744 2.46411 5.18264 2.64522C5.16721 2.83411 5.16669 3.08229 5.16669 3.46666V3.99999ZM5.16669 12.5333C5.16669 12.9177 5.16721 13.1659 5.18264 13.3548C5.19744 13.5359 5.22256 13.603 5.23935 13.636C5.30327 13.7614 5.40525 13.8634 5.5307 13.9273C5.56366 13.9441 5.63081 13.9692 5.81191 13.984C6.00081 13.9995 6.24899 14 6.63336 14H10.3667C10.7511 14 10.9992 13.9995 11.1881 13.984C11.3692 13.9692 11.4364 13.9441 11.4694 13.9273C11.5948 13.8634 11.6968 13.7614 11.7607 13.636C11.7775 13.603 11.8026 13.5359 11.8174 13.3548C11.8328 13.1659 11.8334 12.9177 11.8334 12.5333V11.4667C11.8334 11.0823 11.8328 10.8341 11.8174 10.6452C11.8026 10.4641 11.7775 10.397 11.7607 10.364C11.6968 10.2386 11.5948 10.1366 11.4694 10.0727C11.4364 10.0559 11.3692 10.0307 11.1881 10.0159C10.9992 10.0005 10.7511 9.99999 10.3667 9.99999H6.63336C6.24899 9.99999 6.00081 10.0005 5.81191 10.0159C5.63081 10.0307 5.56366 10.0559 5.5307 10.0727C5.40526 10.1366 5.30327 10.2386 5.23935 10.364C5.22256 10.397 5.19744 10.4641 5.18264 10.6452C5.16721 10.8341 5.16669 11.0823 5.16669 11.4667V12.5333ZM13.1667 11.3267C13.1665 11.0235 13.1645 10.7589 13.1463 10.5366C13.1248 10.2731 13.0772 10.0109 12.9487 9.75868C12.757 9.38235 12.451 9.07639 12.0747 8.88465C11.8224 8.75612 11.5603 8.70857 11.2967 8.68704C11.047 8.66664 10.7438 8.66665 10.3924 8.66666H6.60768C6.25624 8.66665 5.95306 8.66664 5.70334 8.68704C5.43977 8.70857 5.17763 8.75612 4.92538 8.88465C4.54905 9.07639 4.24309 9.38235 4.05134 9.75868C3.92281 10.0109 3.87527 10.2731 3.85374 10.5366C3.83558 10.7589 3.83359 11.0235 3.83338 11.3267C3.66165 11.3206 3.56746 11.3091 3.48827 11.2879C3.02814 11.1646 2.66875 10.8052 2.54546 10.3451C2.50575 10.1969 2.50002 9.99623 2.50002 9.33332V7.86666C2.50002 7.2956 2.50054 6.90741 2.52506 6.60735C2.54894 6.31507 2.59222 6.1656 2.64535 6.06134C2.77318 5.81045 2.97715 5.60648 3.22804 5.47865C3.3323 5.42552 3.48177 5.38224 3.77405 5.35836C4.07411 5.33384 4.4623 5.33332 5.03336 5.33332H11.9667C12.5377 5.33332 12.9259 5.33384 13.226 5.35836C13.5183 5.38224 13.6677 5.42552 13.772 5.47865C14.0229 5.60648 14.2269 5.81045 14.3547 6.06134C14.4078 6.1656 14.4511 6.31507 14.475 6.60735C14.4995 6.90741 14.5 7.2956 14.5 7.86666V9.33332C14.5 9.99623 14.4943 10.1969 14.4546 10.3451C14.3313 10.8052 13.9719 11.1646 13.5118 11.2879C13.4326 11.3091 13.3384 11.3206 13.1667 11.3267ZM9.83336 6.99999C9.83336 6.6318 10.1318 6.33332 10.5 6.33332H12.5C12.8682 6.33332 13.1667 6.6318 13.1667 6.99999C13.1667 7.36818 12.8682 7.66666 12.5 7.66666H10.5C10.1318 7.66666 9.83336 7.36818 9.83336 6.99999Z" fill="#CCCCCC"/>
</g>
</svg>
