<svg width="21" height="20" viewBox="0 0 21 20" fill="none" xmlns="http://www.w3.org/2000/svg">
<path d="M9.1875 18.4375C9.02174 18.4375 8.86277 18.3717 8.74556 18.2544C8.62835 18.1372 8.5625 17.9783 8.5625 17.8125V11.8031L2.76875 5.43125C2.54068 5.17992 2.39046 4.8678 2.33633 4.53276C2.28219 4.19772 2.32647 3.85417 2.46379 3.54381C2.6011 3.23345 2.82555 2.96961 3.10989 2.78432C3.39423 2.59904 3.72624 2.50027 4.06563 2.5H17.4344C17.7738 2.50027 18.1058 2.59904 18.3901 2.78432C18.6745 2.96961 18.8989 3.23345 19.0362 3.54381C19.1735 3.85417 19.2178 4.19772 19.1637 4.53276C19.1095 4.8678 18.9593 5.17992 18.7313 5.43125L12.9375 11.8031V15.3125C12.9374 15.4061 12.9164 15.4985 12.8758 15.5829C12.8352 15.6673 12.7762 15.7415 12.7031 15.8L9.57813 18.3C9.46733 18.3889 9.32955 18.4374 9.1875 18.4375ZM4.06563 3.75C3.96837 3.75024 3.87327 3.77867 3.79183 3.83184C3.7104 3.88501 3.64612 3.96064 3.60677 4.04958C3.56742 4.13852 3.5547 4.23696 3.57014 4.33298C3.58557 4.42901 3.62851 4.5185 3.69375 4.59062L9.65 11.1531C9.75205 11.2653 9.8098 11.4108 9.8125 11.5625V16.5125L11.6875 15V11.5625C11.6871 11.4065 11.7451 11.256 11.85 11.1406L17.8063 4.57812C17.8676 4.50567 17.9072 4.41734 17.9205 4.32334C17.9338 4.22933 17.9202 4.13348 17.8813 4.04688C17.8424 3.96027 17.7798 3.88643 17.7007 3.8339C17.6216 3.78136 17.5293 3.75228 17.4344 3.75H4.06563Z" fill="#212121"/>
</svg>
