<svg width="20" height="20" viewBox="0 0 20 20" fill="none" xmlns="http://www.w3.org/2000/svg">
<g id="Icons/ExternalLink">
<path id="Union" fill-rule="evenodd" clip-rule="evenodd" d="M16.1248 3.34971C16.1145 3.34428 16.1041 3.33884 16.0936 3.3336L16.0947 3.33325H11.3291C11.3259 3.33567 11.3229 3.3384 11.3198 3.34113C11.3132 3.34701 11.3067 3.35286 11.2989 3.35547C10.9082 3.48742 10.6886 3.81276 10.7478 4.17179C10.8139 4.57352 11.1089 4.81623 11.533 4.81623H13.9679H14.1022C14.1059 4.823 14.1095 4.82986 14.113 4.83672C14.1166 4.84358 14.1201 4.85043 14.1238 4.8572C14.1107 4.867 14.0971 4.87635 14.0835 4.88569C14.0543 4.90582 14.025 4.92595 14.0003 4.95061C12.026 6.92317 10.0527 8.89642 8.07938 10.87C8.07169 10.8777 8.06396 10.8854 8.05622 10.893C8.02374 10.9252 7.99123 10.9573 7.96145 10.9916C7.66956 11.3273 7.73148 11.8336 8.09469 12.0898C8.3998 12.3051 8.79501 12.2568 9.08551 11.9662C10.0815 10.9704 11.0774 9.97446 12.0733 8.97854C13.0691 7.98262 14.065 6.98671 15.061 5.99088C15.0846 5.96739 15.1089 5.94474 15.1392 5.91663C15.1527 5.90401 15.1675 5.89029 15.1839 5.87491V6.04852C15.1839 6.28055 15.1837 6.5126 15.1835 6.74467C15.183 7.34156 15.1825 7.93852 15.1852 8.53531C15.187 8.93357 15.5227 9.25961 15.9211 9.26378C16.3225 9.2683 16.6649 8.93635 16.6656 8.53254C16.6673 7.044 16.6666 5.55512 16.6656 4.06658C16.6652 3.75756 16.4826 3.49818 16.1935 3.3829C16.1698 3.37338 16.1474 3.36157 16.1248 3.34971ZM3.36558 6.63701C3.35508 6.68179 3.34458 6.72657 3.33331 6.77109V14.7138C3.34158 14.7484 3.34919 14.7833 3.35679 14.8182C3.37383 14.8963 3.39088 14.9745 3.41542 15.0499C3.7007 15.9349 4.29804 16.4697 5.21545 16.6412C5.23216 16.6443 5.24821 16.651 5.26428 16.6577C5.27164 16.6607 5.279 16.6638 5.28642 16.6665H13.2293C13.24 16.6636 13.2507 16.6601 13.2613 16.6567C13.283 16.6497 13.3046 16.6427 13.3267 16.6395C14.3371 16.494 15.1626 15.5648 15.1814 14.545C15.1868 14.2555 15.1859 13.9658 15.1851 13.6762C15.1848 13.5709 15.1845 13.4656 15.1845 13.3603C15.1845 13.1939 15.1849 13.0274 15.1852 12.8609C15.1861 12.3851 15.1871 11.9092 15.1804 11.4336C15.1741 11.0086 14.7591 10.678 14.3416 10.7482C13.9578 10.8124 13.7018 11.1086 13.7011 11.4982C13.6998 12.0895 13.7 12.681 13.7001 13.2724C13.7002 13.6489 13.7003 14.0253 13.7 14.4016C13.6997 14.8728 13.3894 15.1836 12.9173 15.1836C10.4781 15.1843 8.03901 15.1843 5.59988 15.1836C5.12952 15.1836 4.81676 14.8704 4.81676 14.4006C4.81641 11.9613 4.81641 9.52247 4.81676 7.08324C4.81676 6.61137 5.12743 6.30061 5.59814 6.30061C5.99482 6.30032 6.39155 6.30045 6.7883 6.30057C7.35506 6.30075 7.92184 6.30093 8.4885 6.29991C8.92616 6.29922 9.26397 5.97214 9.26397 5.55617C9.26432 5.14228 8.93764 4.81832 8.50172 4.81693C8.45508 4.81677 8.40844 4.81661 8.3618 4.81645C7.40579 4.8131 6.4498 4.80976 5.49412 4.81936C4.5541 4.82874 3.72261 5.4586 3.43838 6.35859C3.40944 6.44993 3.38751 6.54348 3.36558 6.63701Z" fill="#777777"/>
</g>
</svg>
