<svg width="32" height="32" viewBox="0 0 32 32" fill="none" xmlns="http://www.w3.org/2000/svg">
<g id="Icons/Hamburger">
<path id="Vector" d="M8.00001 8H24C24.3536 8 24.6928 8.14048 24.9428 8.39052C25.1929 8.64057 25.3333 8.97971 25.3333 9.33333C25.3333 9.68696 25.1929 10.0261 24.9428 10.2761C24.6928 10.5262 24.3536 10.6667 24 10.6667H8.00001C7.64638 10.6667 7.30724 10.5262 7.0572 10.2761C6.80715 10.0261 6.66667 9.68696 6.66667 9.33333C6.66667 8.97971 6.80715 8.64057 7.0572 8.39052C7.30724 8.14048 7.64638 8 8.00001 8ZM8.00001 21.3333H24C24.3536 21.3333 24.6928 21.4738 24.9428 21.7239C25.1929 21.9739 25.3333 22.313 25.3333 22.6667C25.3333 23.0203 25.1929 23.3594 24.9428 23.6095C24.6928 23.8595 24.3536 24 24 24H8.00001C7.64638 24 7.30724 23.8595 7.0572 23.6095C6.80715 23.3594 6.66667 23.0203 6.66667 22.6667C6.66667 22.313 6.80715 21.9739 7.0572 21.7239C7.30724 21.4738 7.64638 21.3333 8.00001 21.3333ZM8.00001 14.6667H24C24.3536 14.6667 24.6928 14.8071 24.9428 15.0572C25.1929 15.3072 25.3333 15.6464 25.3333 16C25.3333 16.3536 25.1929 16.6928 24.9428 16.9428C24.6928 17.1929 24.3536 17.3333 24 17.3333H8.00001C7.64638 17.3333 7.30724 17.1929 7.0572 16.9428C6.80715 16.6928 6.66667 16.3536 6.66667 16C6.66667 15.6464 6.80715 15.3072 7.0572 15.0572C7.30724 14.8071 7.64638 14.6667 8.00001 14.6667Z" fill="white"/>
</g>
</svg>
