<svg width="16" height="16" viewBox="0 0 16 16" fill="none" xmlns="http://www.w3.org/2000/svg">
<g id="Icons/Help" clip-path="url(#clip0_18768_647)">
<g id="Group">
<path id="Vector" d="M8.00045 0C3.58363 0 0.000427246 3.57868 0.000427246 7.99579C0.000427246 12.4171 3.58363 16 8.00041 16C12.4196 16 15.9998 12.4171 15.9998 7.99579C15.9998 3.57868 12.4196 0 8.00045 0ZM8.57053 12.4472C8.38472 12.6126 8.16939 12.6957 7.92546 12.6957C7.67308 12.6957 7.45293 12.614 7.26501 12.4505C7.0768 12.2873 6.98251 12.0587 6.98251 11.7651C6.98251 11.5046 7.07376 11.2853 7.25568 11.1076C7.43759 10.9299 7.66074 10.8411 7.92546 10.8411C8.18595 10.8411 8.40521 10.9299 8.5832 11.1076C8.76089 11.2853 8.85003 11.5045 8.85003 11.7651C8.84969 12.0545 8.75663 12.2819 8.57053 12.4472ZM10.8873 6.70351C10.7446 6.96823 10.5751 7.19649 10.3784 7.38896C10.1823 7.5814 9.82969 7.90484 9.3207 8.35958C9.18036 8.48789 9.06743 8.60052 8.98281 8.69748C8.89819 8.79477 8.83495 8.88357 8.79367 8.9643C8.75211 9.045 8.72021 9.12573 8.69761 9.20642C8.67501 9.28682 8.64099 9.42868 8.5949 9.63134C8.51662 10.0614 8.27057 10.2764 7.85706 10.2764C7.64203 10.2764 7.46134 10.2062 7.31407 10.0656C7.16739 9.92496 7.09422 9.71626 7.09422 9.43921C7.09422 9.09198 7.14812 8.7911 7.25564 8.53664C7.36257 8.28215 7.50561 8.059 7.6833 7.86657C7.86129 7.67413 8.101 7.44583 8.40306 7.18111C8.66778 6.94952 8.85903 6.77487 8.97677 6.65709C9.09481 6.53905 9.19392 6.40774 9.27432 6.26318C9.35534 6.11831 9.3951 5.96141 9.3951 5.79187C9.3951 5.46091 9.27254 5.18204 9.0262 4.95466C8.78015 4.72729 8.46271 4.61344 8.07392 4.61344C7.61887 4.61344 7.28398 4.72818 7.06895 4.95766C6.85391 5.18715 6.67233 5.52504 6.52325 5.97167C6.38231 6.43909 6.11548 6.67276 5.72305 6.67276C5.49146 6.67276 5.29602 6.59114 5.13671 6.4279C4.97769 6.26466 4.89818 6.0879 4.89818 5.89757C4.89818 5.50485 5.02437 5.10671 5.27646 4.70347C5.52884 4.30022 5.89685 3.96622 6.38079 3.7018C6.86444 3.43708 7.42914 3.30455 8.07392 3.30455C8.67352 3.30455 9.20266 3.41537 9.66163 3.63674C10.1206 3.85778 10.4754 4.15866 10.7256 4.5393C10.9756 4.91965 11.1009 5.33316 11.1009 5.77979C11.1014 6.13069 11.0301 6.43879 10.8873 6.70351Z" fill="#1965E1"/>
</g>
</g>
<defs>
<clipPath id="clip0_18768_647">
<rect width="16" height="16" fill="white"/>
</clipPath>
</defs>
</svg>
