<svg width="48" height="48" viewBox="0 0 48 48" fill="none" xmlns="http://www.w3.org/2000/svg">
<path d="M26.8594 19.7344C25.7766 19.7344 24.9375 20.5734 24.9375 21.6094C24.9375 22.6453 25.7766 23.4844 26.8594 23.4844C27.8484 23.4844 28.6875 22.6453 28.6875 21.6094C28.6875 20.5734 27.8484 19.7344 26.8594 19.7344ZM13.7344 19.7344C12.6516 19.7344 11.8125 20.5734 11.8125 21.6094C11.8125 22.6453 12.6516 23.4844 13.7344 23.4844C14.7234 23.4844 15.5625 22.6453 15.5625 21.6094C15.5625 20.5734 14.7234 19.7344 13.7344 19.7344Z" fill="#1965E0"/>
<path d="M41.9066 16.172C39.6519 13.0783 36.5019 11.0111 33.0472 10.0783V10.083C32.2457 9.19233 31.341 8.37202 30.3285 7.64077C22.655 2.06264 11.8832 3.76421 6.2816 11.4376C1.76754 17.672 1.95973 26.058 6.56285 32.0158L6.60035 38.2314C6.60035 38.3814 6.62379 38.5314 6.67066 38.672C6.9191 39.4642 7.76285 39.9001 8.55035 39.6517L14.4847 37.7814C16.055 38.3392 17.6769 38.658 19.2894 38.747L19.266 38.7658C23.4425 41.808 28.9175 42.722 33.9379 41.0626L39.8957 43.0033C40.0457 43.0501 40.2004 43.0783 40.3597 43.0783C41.1894 43.0783 41.8597 42.408 41.8597 41.5783V35.297C45.9894 29.6908 46.0972 21.9423 41.9066 16.172ZM15.141 34.4533L14.5785 34.2189L9.93785 35.672L9.89098 30.797L9.51598 30.3751C5.55035 25.5376 5.28785 18.5673 9.00035 13.4533C13.5191 7.25639 22.1816 5.88764 28.3597 10.3595C34.5566 14.8642 35.93 23.5126 31.4535 29.672C27.6988 34.8236 20.9769 36.7267 15.141 34.4533ZM38.8129 33.6564L38.4379 34.1251L38.4847 39.0001L33.891 37.4533L33.3285 37.6876C30.7035 38.6626 27.905 38.7423 25.3129 38.0158L25.3035 38.0111C28.7675 36.947 31.9082 34.7908 34.1722 31.6876C37.7535 26.7517 38.3347 20.5501 36.2535 15.2626L36.2816 15.2814C37.3597 16.0548 38.3488 17.0205 39.1879 18.1876C42.591 22.8564 42.3988 29.2126 38.8129 33.6564Z" fill="#1965E0"/>
<path d="M20.2969 19.7344C19.2141 19.7344 18.375 20.5734 18.375 21.6094C18.375 22.6453 19.2141 23.4844 20.2969 23.4844C21.2859 23.4844 22.125 22.6453 22.125 21.6094C22.125 20.5734 21.2859 19.7344 20.2969 19.7344Z" fill="#1965E0"/>
</svg>
