<svg width="8" height="8" viewBox="0 0 8 8" fill="none" xmlns="http://www.w3.org/2000/svg">
<g id="vuesax/bold/pause">
<path id="Vector" d="M3.58342 6.63341V1.36675C3.58342 0.866748 3.3661 0.666748 2.81708 0.666748H1.43309C0.884068 0.666748 0.666748 0.866748 0.666748 1.36675V6.63341C0.666748 7.13341 0.884068 7.33341 1.43309 7.33341H2.81708C3.3661 7.33341 3.58342 7.13341 3.58342 6.63341Z" fill="white"/>
<path id="Vector_2" d="M7.33341 6.63341V1.36675C7.33341 0.866748 7.11609 0.666748 6.56707 0.666748H5.18309C4.63788 0.666748 4.41675 0.866748 4.41675 1.36675V6.63341C4.41675 7.13341 4.63407 7.33341 5.18309 7.33341H6.56707C7.11609 7.33341 7.33341 7.13341 7.33341 6.63341Z" fill="white"/>
</g>
</svg>
