<svg width="20" height="20" viewBox="0 0 20 20" fill="none" xmlns="http://www.w3.org/2000/svg">
<g id="Icons/Search">
<path id="Vector (Stroke) (Stroke)" fill-rule="evenodd" clip-rule="evenodd" d="M4.90395 4.90407C6.10969 3.69826 7.74503 3.02083 9.45021 3.02083C11.1554 3.02083 12.7907 3.69826 13.9965 4.90407C15.2022 6.10988 15.8796 7.74531 15.8796 9.45058C15.8796 10.8328 15.4346 12.1691 14.6239 13.2679L16.433 15.0804C16.8061 15.4542 16.8056 16.0597 16.4318 16.4329C16.0579 16.8061 15.4524 16.8055 15.0792 16.4317L13.272 14.6211C12.1723 15.434 10.8343 15.8803 9.45021 15.8803C7.74503 15.8803 6.10969 15.2029 4.90395 13.9971C3.69821 12.7913 3.02084 11.1559 3.02084 9.45058C3.02084 7.74531 3.69821 6.10988 4.90395 4.90407ZM5.81454 5.81471C6.77877 4.85042 8.08657 4.30868 9.45021 4.30868C10.8139 4.30868 12.1217 4.85042 13.0859 5.81471C14.0501 6.77901 14.5918 8.08687 14.5918 9.45058C14.5918 10.8143 14.0501 12.1222 13.0859 13.0865C12.1217 14.0508 10.8139 14.5925 9.45021 14.5925C8.08657 14.5925 6.77877 14.0508 5.81454 13.0865C4.8503 12.1222 4.3086 10.8143 4.3086 9.45058C4.3086 8.08687 4.8503 6.77901 5.81454 5.81471Z" fill="#212121"/>
</g>
</svg>
