<svg width="20" height="20" viewBox="0 0 20 20" fill="none" xmlns="http://www.w3.org/2000/svg">
<path fill-rule="evenodd" clip-rule="evenodd" d="M3.69153 10.0001C3.69153 6.52159 6.52153 3.69159 10 3.69159C13.4785 3.69159 16.3085 6.52159 16.3085 10.0001C16.3085 13.4786 13.4785 16.3086 10 16.3086C6.52153 16.3086 3.69153 13.4786 3.69153 10.0001Z" fill="#0D2EA0" stroke="#0D2EA0"/>
<path fill-rule="evenodd" clip-rule="evenodd" d="M10.0001 3.35938C6.33256 3.35938 3.35956 6.33238 3.35956 9.99988C3.35956 13.6674 6.33256 16.6404 10.0001 16.6404C13.6676 16.6404 16.6406 13.6674 16.6406 9.99988C16.6406 6.33238 13.6676 3.35938 10.0001 3.35938M10.0001 4.02337C13.2956 4.02337 15.9766 6.70437 15.9766 9.99988C15.9766 13.2954 13.2956 15.9764 10.0001 15.9764C6.70456 15.9764 4.02356 13.2954 4.02356 9.99988C4.02356 6.70437 6.70456 4.02337 10.0001 4.02337" fill="#002BA7"/>
<path d="M10 14V10" stroke="#FEFEFE" stroke-linecap="round" stroke-linejoin="round"/>
<path d="M10 7.5V7" stroke="#FEFEFE" stroke-linecap="round" stroke-linejoin="round"/>
</svg>
