<svg width="40" height="40" viewBox="0 0 40 40" fill="none" xmlns="http://www.w3.org/2000/svg">
<g id="Icons/Ink" clip-path="url(#clip0_20153_4864)">
<path id="Vector" d="M38.4375 6.25V4.6875C38.4375 2.10281 36.3347 0 33.75 0H6.25C3.66531 0 1.5625 2.10281 1.5625 4.6875V6.25C0.699531 6.25 0 6.94953 0 7.8125C0 8.67547 0.699531 9.375 1.5625 9.375V18.8691C1.5625 21.2128 2.85492 23.3388 4.93547 24.4176L10.4229 27.2629C11.4631 27.8023 12.1094 28.8653 12.1094 30.0371V33.75C12.1094 37.1963 14.9131 40 18.3594 40H32.1875C35.6338 40 38.4375 37.1963 38.4375 33.75C38.4375 32.887 37.738 32.1875 36.875 32.1875C36.012 32.1875 35.3125 32.887 35.3125 33.75C35.3125 35.4731 33.9106 36.875 32.1875 36.875H18.3594C16.6362 36.875 15.2344 35.4731 15.2344 33.75V30.0371C15.2344 27.6934 13.942 25.5674 11.8614 24.4887L6.37398 21.6434C5.33367 21.104 4.6875 20.0409 4.6875 18.8691V9.375H35.3125V25.9375C35.3125 26.8005 36.012 27.5 36.875 27.5C37.738 27.5 38.4375 26.8005 38.4375 25.9375V9.375C39.3005 9.375 40 8.67547 40 7.8125C40 6.94953 39.3005 6.25 38.4375 6.25ZM4.6875 6.25V4.6875C4.6875 3.82594 5.38844 3.125 6.25 3.125H33.75C34.6116 3.125 35.3125 3.82594 35.3125 4.6875V6.25H4.6875ZM24.6875 14.8438C24.2434 14.8438 23.8203 15.0327 23.5239 15.3634C23.4858 15.4059 22.5803 16.4189 21.6644 17.683C19.8224 20.2252 19.6094 21.4713 19.6094 22.1875C19.6094 25.0307 21.8874 27.3438 24.6875 27.3438C27.4876 27.3438 29.7656 25.0307 29.7656 22.1875C29.7656 21.4713 29.5526 20.2252 27.7105 17.683C26.7946 16.4189 25.8891 15.4059 25.851 15.3634C25.5547 15.0327 25.1316 14.8438 24.6875 14.8438ZM24.6875 24.2188C23.6288 24.2188 22.7344 23.2885 22.7344 22.1886C22.7345 22.1818 22.7678 21.4857 24.197 19.514C24.3622 19.2859 24.528 19.0659 24.6875 18.86C24.847 19.0659 25.0128 19.2859 25.178 19.514C26.6072 21.4857 26.6405 22.1818 26.6406 22.1875C26.6406 23.2885 25.7462 24.2188 24.6875 24.2188Z" fill="#0D2EA0"/>
</g>
<defs>
<clipPath id="clip0_20153_4864">
<rect width="40" height="40" fill="white"/>
</clipPath>
</defs>
</svg>
