<svg width="12" height="12" viewBox="0 0 12 12" fill="none" xmlns="http://www.w3.org/2000/svg">
<g id="Group 3">
<path id="Vector" d="M5.99591 3.29529C5.28085 3.29529 4.59508 3.5789 4.08945 4.08374C3.58383 4.58858 3.29977 5.27329 3.29977 5.98724C3.29977 6.70119 3.58383 7.38589 4.08945 7.89073C4.59508 8.39557 5.28085 8.67919 5.99591 8.67919C6.71097 8.67919 7.39674 8.39557 7.90236 7.89073C8.40799 7.38589 8.69204 6.70119 8.69204 5.98724C8.69204 5.27329 8.40799 4.58858 7.90236 4.08374C7.39674 3.5789 6.71097 3.29529 5.99591 3.29529ZM5.99591 7.73549C5.53137 7.73549 5.08585 7.55124 4.75737 7.22327C4.42889 6.8953 4.24435 6.45048 4.24435 5.98666C4.24435 5.52284 4.42889 5.07801 4.75737 4.75004C5.08585 4.42207 5.53137 4.23782 5.99591 4.23782C6.46045 4.23782 6.90597 4.42207 7.23445 4.75004C7.56293 5.07801 7.74746 5.52284 7.74746 5.98666C7.74746 6.45048 7.56293 6.8953 7.23445 7.22327C6.90597 7.55124 6.46045 7.73549 5.99591 7.73549Z" fill="#0D2EA0"/>
<path id="Vector_2" d="M8.79905 3.82388C9.14634 3.82388 9.42788 3.54291 9.42788 3.1963C9.42788 2.8497 9.14634 2.56873 8.79905 2.56873C8.45175 2.56873 8.17021 2.8497 8.17021 3.1963C8.17021 3.54291 8.45175 3.82388 8.79905 3.82388Z" fill="#0D2EA0"/>
<path id="Vector_3" d="M10.9719 2.55822C10.8369 2.21018 10.6306 1.89413 10.3663 1.63027C10.1019 1.36642 9.78526 1.16059 9.43664 1.02595C9.02868 0.873045 8.5977 0.790368 8.16204 0.781437C7.60054 0.756986 7.4227 0.75 5.99883 0.75C4.57497 0.75 4.39246 0.75 3.83563 0.781437C3.4003 0.789912 2.96962 0.872606 2.56219 1.02595C2.21348 1.16043 1.89677 1.36621 1.63239 1.63008C1.368 1.89395 1.16178 2.21009 1.02696 2.55822C0.873789 2.96551 0.791174 3.39586 0.782652 3.83084C0.75758 4.39088 0.75 4.56845 0.75 5.99068C0.75 7.41234 0.75 7.5934 0.782652 8.15053C0.791398 8.58599 0.873612 9.01563 1.02696 9.42374C1.16216 9.77173 1.36858 10.0877 1.63303 10.3516C1.89748 10.6154 2.21414 10.8213 2.56278 10.956C2.96943 11.1151 3.40029 11.2036 3.83679 11.218C4.3983 11.2424 4.57613 11.25 6 11.25C7.42387 11.25 7.60637 11.25 8.16321 11.218C8.59882 11.2091 9.02979 11.1267 9.43781 10.9741C9.78634 10.8391 10.1029 10.6331 10.3672 10.3692C10.6315 10.1052 10.8379 9.7892 10.973 9.4412C11.1264 9.03368 11.2086 8.60404 11.2173 8.16858C11.2424 7.60853 11.25 7.43097 11.25 6.00873C11.25 4.58649 11.25 4.40602 11.2173 3.84889C11.2106 3.40776 11.1275 2.97112 10.9719 2.55822ZM10.2617 8.10745C10.2579 8.44296 10.1966 8.77534 10.0804 9.09015C9.99279 9.31654 9.85874 9.52212 9.68682 9.69368C9.5149 9.86523 9.30892 9.99895 9.08213 10.0862C8.77032 10.2018 8.44096 10.263 8.1084 10.2673C7.55448 10.2929 7.39821 10.2993 5.97784 10.2993C4.55631 10.2993 4.41112 10.2993 3.84671 10.2673C3.51431 10.2632 3.18511 10.202 2.87356 10.0862C2.64597 9.99949 2.43917 9.86601 2.26651 9.69442C2.09386 9.52284 1.9592 9.31697 1.87125 9.09015C1.75665 8.77872 1.69534 8.45026 1.68992 8.11851C1.66484 7.56545 1.65901 7.40943 1.65901 5.99127C1.65901 4.57252 1.65901 4.42756 1.68992 3.86344C1.69368 3.52812 1.75502 3.19594 1.87125 2.88132C2.04909 2.42199 2.41351 2.06046 2.87356 1.88465C3.18526 1.76946 3.51437 1.70823 3.84671 1.70359C4.40121 1.67856 4.55689 1.67157 5.97784 1.67157C7.3988 1.67157 7.54456 1.67157 8.1084 1.70359C8.44099 1.70759 8.7704 1.76884 9.08213 1.88465C9.3089 1.97213 9.51485 2.10599 9.68676 2.27763C9.85867 2.44927 9.99273 2.6549 10.0804 2.88132C10.195 3.19275 10.2563 3.52122 10.2617 3.85296C10.2868 4.4066 10.2932 4.56204 10.2932 5.98079C10.2932 7.39895 10.2932 7.55148 10.2681 8.10803H10.2617V8.10745Z" fill="#0D2EA0"/>
</g>
</svg>
