<svg width="32" height="32" viewBox="0 0 32 32" fill="none" xmlns="http://www.w3.org/2000/svg">
<g id="Icons/LeftArrow">
<path id="Vector" d="M11.2201 16.6512L16.4867 21.7937C16.7296 22.0392 16.864 22.3681 16.8609 22.7094C16.8579 23.0508 16.7177 23.3773 16.4705 23.6187C16.2233 23.8601 15.8888 23.997 15.5393 23.9999C15.1897 24.0029 14.8529 23.8717 14.6014 23.6345L7.05872 16.2698C6.93447 16.1491 6.83587 16.0057 6.76859 15.8478C6.70131 15.6898 6.66667 15.5204 6.66667 15.3493C6.66667 15.1783 6.70131 15.0089 6.76859 14.8509C6.83587 14.6929 6.93447 14.5495 7.05872 14.4289L14.6014 7.06412C14.7244 6.93977 14.8715 6.84059 15.0342 6.77236C15.1969 6.70413 15.3718 6.66822 15.5489 6.66671C15.7259 6.66521 15.9015 6.69815 16.0653 6.76361C16.2292 6.82907 16.3781 6.92574 16.5032 7.04798C16.6284 7.17022 16.7274 7.31558 16.7945 7.47557C16.8615 7.63557 16.8953 7.807 16.8937 7.97987C16.8922 8.15273 16.8554 8.32356 16.7855 8.4824C16.7156 8.64123 16.6141 8.78489 16.4867 8.90499L11.2201 14.0474L24.0014 14.0474C24.355 14.0474 24.6941 14.1846 24.9442 14.4288C25.1942 14.6729 25.3347 15.004 25.3347 15.3493C25.3347 15.6946 25.1942 16.0258 24.9442 16.2699C24.6941 16.5141 24.355 16.6512 24.0014 16.6512L11.2201 16.6512Z" fill="white"/>
</g>
</svg>
