<svg width="20" height="21" viewBox="0 0 20 21" fill="none" xmlns="http://www.w3.org/2000/svg">
<g id="Icons/LeftArrow">
<path id="Vector" d="M7.01232 11.367L10.304 14.581C10.4558 14.7345 10.5398 14.94 10.5379 15.1534C10.536 15.3667 10.4483 15.5708 10.2938 15.7216C10.1393 15.8725 9.93032 15.9581 9.71182 15.9599C9.49332 15.9618 9.28282 15.8798 9.12565 15.7316L4.41148 11.1286C4.33383 11.0532 4.27221 10.9635 4.23015 10.8648C4.1881 10.7661 4.16646 10.6602 4.16646 10.5533C4.16646 10.4464 4.1881 10.3405 4.23015 10.2418C4.27221 10.143 4.33383 10.0534 4.41148 9.97802L9.12565 5.37503C9.20252 5.29732 9.29448 5.23533 9.39615 5.19269C9.49782 5.15004 9.60717 5.1276 9.71782 5.12666C9.82847 5.12572 9.9382 5.14631 10.0406 5.18722C10.143 5.22813 10.2361 5.28855 10.3143 5.36495C10.3926 5.44135 10.4544 5.5322 10.4963 5.63219C10.5382 5.73219 10.5593 5.83934 10.5584 5.94738C10.5574 6.05542 10.5344 6.16219 10.4907 6.26146C10.4471 6.36073 10.3836 6.45052 10.304 6.52558L7.01232 9.73961L15.0007 9.73961C15.2217 9.73961 15.4336 9.82534 15.5899 9.97793C15.7462 10.1305 15.834 10.3375 15.834 10.5533C15.834 10.7691 15.7462 10.9761 15.5899 11.1287C15.4336 11.2812 15.2217 11.367 15.0007 11.367L7.01232 11.367Z" fill="#4D4D4D"/>
</g>
</svg>
