<svg width="12" height="12" viewBox="0 0 12 12" fill="none" xmlns="http://www.w3.org/2000/svg">
<g id="Group 4">
<path id="Vector" d="M4.38822 4.16548V11.2466H6.58681V7.74481C6.58681 6.82081 6.76064 5.92598 7.90631 5.92598C9.03622 5.92598 9.05022 6.98239 9.05022 7.80314V11.2471H11.25V7.3639C11.25 5.4564 10.8393 3.99048 8.60981 3.99048C7.53939 3.99048 6.82189 4.5779 6.52847 5.13381H6.49872V4.16548H4.38822ZM0.805389 4.16548H3.00747V11.2466H0.805389V4.16548Z" fill="#0D2EA0"/>
<path id="Vector_2" d="M1.90673 3.1983C2.61163 3.1983 3.18307 2.62686 3.18307 1.92196C3.18307 1.21706 2.61163 0.64563 1.90673 0.64563C1.20184 0.64563 0.630402 1.21706 0.630402 1.92196C0.630402 2.62686 1.20184 3.1983 1.90673 3.1983Z" fill="#0D2EA0"/>
</g>
</svg>
