<svg width="20" height="20" viewBox="0 0 20 20" fill="none" xmlns="http://www.w3.org/2000/svg">
<g id="Icons/Location">
<path id="Icon (Stroke)" fill-rule="evenodd" clip-rule="evenodd" d="M10 2.49998C6.77834 2.49998 4.16667 5.11165 4.16667 8.33331C4.16667 9.91006 4.87764 11.3983 6.0769 12.9556C7.08951 14.2704 8.38561 15.556 9.7769 16.9361C9.851 17.0096 9.92538 17.0833 10 17.1574C10.0746 17.0833 10.149 17.0096 10.2231 16.9361C11.6144 15.556 12.9105 14.2704 13.9231 12.9556C15.1224 11.3983 15.8333 9.91006 15.8333 8.33331C15.8333 5.11165 13.2217 2.49998 10 2.49998ZM2.5 8.33331C2.5 4.19118 5.85786 0.833313 10 0.833313C14.1421 0.833313 17.5 4.19118 17.5 8.33331C17.5 10.4385 16.5443 12.2835 15.2436 13.9725C14.1566 15.3839 12.7654 16.763 11.3757 18.1407C11.1128 18.4013 10.85 18.6619 10.5893 18.9226C10.2638 19.248 9.73618 19.248 9.41074 18.9226C9.15003 18.6619 8.88719 18.4013 8.62431 18.1407C7.23456 16.763 5.84337 15.3839 4.75643 13.9725C3.45569 12.2835 2.5 10.4385 2.5 8.33331ZM10 6.66665C9.07953 6.66665 8.33333 7.41284 8.33333 8.33331C8.33333 9.25379 9.07953 9.99998 10 9.99998C10.9205 9.99998 11.6667 9.25379 11.6667 8.33331C11.6667 7.41284 10.9205 6.66665 10 6.66665ZM6.66667 8.33331C6.66667 6.49236 8.15905 4.99998 10 4.99998C11.8409 4.99998 13.3333 6.49236 13.3333 8.33331C13.3333 10.1743 11.8409 11.6666 10 11.6666C8.15905 11.6666 6.66667 10.1743 6.66667 8.33331Z" fill="#777777"/>
</g>
</svg>
