<svg width="40" height="40" viewBox="0 0 40 40" fill="none" xmlns="http://www.w3.org/2000/svg">
<g id="Icons/Location">
<path id="Icon (Stroke)" fill-rule="evenodd" clip-rule="evenodd" d="M20 5.00002C13.5567 5.00002 8.33333 10.2234 8.33333 16.6667C8.33333 19.8202 9.75528 22.7968 12.1538 25.9112C14.179 28.5409 16.7712 31.1121 19.5538 33.8722C19.702 34.0192 19.8508 34.1667 20 34.3149C20.1492 34.1667 20.298 34.0192 20.4462 33.8722C23.2288 31.1121 25.821 28.5409 27.8462 25.9112C30.2447 22.7968 31.6667 19.8202 31.6667 16.6667C31.6667 10.2234 26.4433 5.00002 20 5.00002ZM5 16.6667C5 8.38241 11.7157 1.66669 20 1.66669C28.2843 1.66669 35 8.38241 35 16.6667C35 20.877 33.0886 24.5671 30.4871 27.945C28.3133 30.7678 25.5309 33.526 22.7514 36.2814C22.2256 36.8027 21.6999 37.3238 21.1785 37.8452C20.5276 38.4961 19.4724 38.4961 18.8215 37.8452C18.3001 37.3238 17.7744 36.8027 17.2486 36.2814C14.4691 33.526 11.6867 30.7678 9.51287 27.945C6.91138 24.5671 5 20.877 5 16.6667ZM20 13.3334C18.1591 13.3334 16.6667 14.8257 16.6667 16.6667C16.6667 18.5076 18.1591 20 20 20C21.8409 20 23.3333 18.5076 23.3333 16.6667C23.3333 14.8257 21.8409 13.3334 20 13.3334ZM13.3333 16.6667C13.3333 12.9848 16.3181 10 20 10C23.6819 10 26.6667 12.9848 26.6667 16.6667C26.6667 20.3486 23.6819 23.3334 20 23.3334C16.3181 23.3334 13.3333 20.3486 13.3333 16.6667Z" fill="white"/>
</g>
</svg>
