<svg width="103" height="39" viewBox="0 0 103 39" fill="none" xmlns="http://www.w3.org/2000/svg">
<g id="Logo" clip-path="url(#clip0_21618_1076)">
<g id="logos">
<g id="head_brotherlogo">
<path id="Shape" fill-rule="evenodd" clip-rule="evenodd" d="M78.8396 31.5478L78.9227 31.2166L79.0891 30.8853L79.2554 30.5541L79.4217 30.2229L79.6712 29.9745L79.8375 29.8089L80.0039 29.7261L80.1702 29.6433L80.4197 29.5605L80.6692 29.4777H81.1682L81.4176 29.5605L81.584 29.6433L81.7503 29.7261L81.9166 29.8089L82.083 29.9745L82.3325 30.3057L82.4988 30.6369L82.6651 30.9682V31.2994L82.7483 31.6306H78.8396V31.5478ZM80.9187 28.5669H80.5028L80.1702 28.6497L79.8375 28.7325L79.5049 28.8153L79.2554 28.9809L79.0059 29.2293L78.7564 29.4777L78.5069 29.7261L78.3406 29.9745L78.1742 30.2229L78.0079 30.5541L77.8416 30.8853L77.7584 31.2166L77.6753 31.5478V31.9618L77.5921 32.3758L77.6753 32.7898V33.2038L77.7584 33.535L77.8416 33.8662L78.0079 34.1974L78.1742 34.4459L78.3406 34.6943L78.5069 34.9427L78.7564 35.1083L79.0059 35.2739L79.2554 35.4395L79.588 35.5223L79.9207 35.6051L80.2533 35.6879L80.586 35.7707H81.6671L82.2493 35.6879L82.7483 35.5223L83.2473 35.3567L82.9978 34.4459L82.8314 34.7771H82.4156L81.9166 34.8599H80.8355L80.3365 34.7771L79.9207 34.6115L79.7544 34.5287L79.588 34.3631L79.4217 34.1974L79.2554 34.0318L79.0891 33.8662L79.0059 33.6178V33.3694L78.9227 33.121V32.7898L78.8396 32.4586H83.7462V32.2102L83.8294 31.879L83.7462 31.2994L83.6631 30.7197L83.4967 30.1401L83.3304 29.8917L83.1641 29.6433L82.9978 29.3949L82.8314 29.1465L82.5819 28.9809H82.3325L81.9998 28.8153L81.6671 28.6497L81.2513 28.5669H80.9187ZM75.3467 32.7898V33.121L75.2635 33.3694L75.1803 33.7006L74.9308 33.949L74.7645 34.1974L74.515 34.4459L74.2655 34.6115L74.016 34.7771L73.6834 34.8599H73.1844L72.9349 34.7771H72.6854L72.5191 34.6943L72.3528 34.6115L72.1864 34.4459L72.0201 34.2803L71.9369 34.1147L71.6874 33.7006L71.5211 33.2866L71.3548 32.7898V31.7134L71.5211 31.2166L71.6874 30.7197L71.9369 30.3057L72.0201 30.1401L72.1864 29.9745L72.3528 29.8089L72.6022 29.7261L72.7686 29.6433L73.0181 29.5605L73.1844 29.4777H73.4339L73.7665 29.5605L74.0992 29.6433L74.3487 29.7261L74.5982 29.8917L74.8477 30.1401L75.014 30.3885L75.1803 30.6369L75.2635 30.9682L75.3467 31.2166V32.7898ZM76.511 25.8344H75.2635V29.6433H75.1803L75.0972 29.3949L74.9308 29.2293L74.7645 29.0637L74.515 28.8981L74.2655 28.8153L73.9329 28.6497L73.5171 28.5669H72.8517L72.5191 28.6497L72.1864 28.7325L71.9369 28.8153L71.6874 28.9809L71.438 29.1465L71.1885 29.3121L70.939 29.5605L70.7726 29.8089L70.6063 30.0573L70.44 30.3885L70.2737 30.7197L70.1905 31.051L70.1073 31.465L70.0242 31.879V32.7898L70.1073 33.121L70.1905 33.535L70.2737 33.8662L70.44 34.1974L70.6063 34.4459L70.7726 34.6943L70.939 34.9427L71.1885 35.1083L71.438 35.2739L71.6874 35.4395L71.9369 35.5223L72.1864 35.6051L72.5191 35.6879L72.8517 35.7707H73.6002L74.016 35.6879L74.3487 35.5223L74.6814 35.3567L74.9308 35.1911L75.1803 34.9427L75.4298 34.6943L75.5962 34.3631L75.6793 35.6051H76.7605L76.6773 34.7771V25.8344H76.511ZM67.3629 35.7707H68.6104V28.7325H67.3629V35.7707ZM68.0282 25.8344L67.8619 25.9172H67.6956L67.5292 26L67.4461 26.0828L67.2797 26.1656L67.1966 26.3312V26.9936L67.2797 27.1592L67.3629 27.242L67.5292 27.4076L67.6956 27.4904H68.3609L68.444 27.4076L68.5272 27.242L68.6104 27.1592L68.6935 26.9936L68.7767 26.828V26.4968L68.6935 26.3312L68.6104 26.1656L68.5272 26.0828L68.444 26L68.3609 25.9172H68.1946L68.0282 25.8344ZM63.9532 31.6306L63.1215 31.2994L62.8721 31.1338L62.6226 30.9682L62.5394 30.8853L62.3731 30.8025V30.3885L62.4562 30.1401L62.5394 29.9745L62.7057 29.8089L62.8721 29.7261L63.1215 29.5605H63.371L63.7037 29.4777L64.2027 29.5605L64.6185 29.6433L65.0343 29.7261L65.367 29.8917L65.6996 29.0637L65.2838 28.8981L64.868 28.7325L64.369 28.6497L63.7869 28.5669L63.1215 28.6497H62.8721L62.6226 28.7325L62.3731 28.8153L62.1236 28.9809L61.9572 29.0637L61.7909 29.2293L61.7078 29.3949L61.5414 29.5605L61.3751 29.8917L61.2919 30.3057L61.1256 30.6369L61.2088 30.9682L61.2919 31.2166L61.4583 31.465L61.6246 31.7134L61.8741 31.9618L62.2067 32.2102L62.6226 32.3758L63.1215 32.5414L63.9532 32.8726L64.2027 33.0382L64.4522 33.2038L64.6185 33.3694L64.7017 33.535V33.7006L64.7848 33.8662L64.7017 34.1147L64.6185 34.2803L64.5353 34.4459L64.369 34.6115L64.1195 34.7771L63.87 34.8599L63.5374 34.9427H63.2047L62.7057 34.8599L62.2067 34.7771L61.7078 34.6115L61.2919 34.4459L60.9593 35.3567L61.4583 35.5223L61.9572 35.6879L62.5394 35.7707H63.7869L64.369 35.6051L64.6185 35.5223L64.868 35.6051L65.0343 35.4395L65.2838 35.2739L65.4501 35.1911L65.6165 35.0255L65.6996 34.8599L65.866 34.6943L65.9491 34.5287V34.2803L66.0323 33.8662V33.4522L65.866 33.121L65.6996 32.7898L65.4501 32.5414L65.2007 32.293L64.868 32.0446L64.4522 31.7962L63.9532 31.6306ZM55.9694 30.1401L55.8031 28.7325H54.6388L54.722 29.8089V35.7707H56.0526V31.7134L56.1358 31.3822L56.2189 31.051L56.3853 30.7197L56.5516 30.4713L56.7179 30.2229L56.9674 30.0573L57.3001 29.8917L57.6327 29.8089H58.5475V28.6497L58.3812 28.5669H58.1317L57.799 28.6497L57.4664 28.7325L57.1337 28.8153L56.8011 28.9809L56.5516 29.2293L56.3021 29.4777L56.1358 29.8089L55.9694 30.1401ZM52.8092 28.7325H51.5617V33.3694L51.4786 33.7006L51.3122 33.949L51.2291 34.1147L51.0628 34.3631L50.8964 34.5287L50.6469 34.6943L50.3974 34.7771L50.0648 34.8599L49.7321 34.9427L49.3163 34.8599L49.0668 34.7771L48.8173 34.5287L48.651 34.2803L48.4015 33.949L48.2352 33.6178V28.7325H46.9877V33.2866L47.0709 33.7006L47.154 34.0318L47.2372 34.3631L47.3204 34.6115L47.4867 34.8599L47.653 35.1083L47.8194 35.2739L47.9857 35.4395L48.152 35.6051L48.4015 35.6879L48.651 35.8535L49.0668 35.9363H49.9816L50.3974 35.8535L50.7301 35.6879L51.0628 35.5223L51.3122 35.2739L51.5617 35.1083L51.7281 34.8599L51.8944 34.6115L51.9776 35.7707H53.0587V34.8599L52.9755 33.7834V28.7325H52.8092ZM42.3305 35.0255H41.8315L41.6652 34.9427L41.4989 34.7771L41.3326 34.6115L41.1662 34.4459L40.9999 34.2803L40.8336 34.1147L40.5841 33.7006L40.4177 33.2038L40.3346 32.707L40.2514 32.293L40.3346 31.7962L40.4177 31.2994L40.5841 30.8025L40.8336 30.3885L40.9999 30.2229L41.1662 30.0573L41.3326 29.8917L41.4989 29.7261L41.6652 29.6433L41.9147 29.5605L42.1642 29.4777H42.6632L42.9127 29.5605L43.1622 29.6433L43.4117 29.7261L43.578 29.8917L43.7443 30.0573L43.9106 30.2229L44.077 30.3885L44.3265 30.8025L44.4928 31.2994L44.576 31.7962V32.8726L44.4096 33.4522L44.077 33.7834L43.8275 34.1974L43.6611 34.3631L43.4948 34.5287L43.3285 34.6943L43.2453 34.7771L42.9958 34.8599L42.7463 34.9427H42.3305V35.0255ZM42.4137 28.5669H42.081L41.7484 28.6497L41.4157 28.7325L41.0831 28.8153L40.7504 28.9809L40.5009 29.1465L40.2514 29.3121L39.9188 29.5605L39.7524 29.8089L39.5029 30.0573L39.3366 30.3885L39.1703 30.7197L39.0871 31.1338L39.004 31.465V31.879L38.9208 32.293L39.004 32.707V33.121L39.0871 33.4522L39.2535 33.7834L39.3366 34.1147L39.5861 34.3631L39.7524 34.6115L39.9188 34.8599L40.1683 35.1083L40.4177 35.2739L40.6672 35.4395L40.9999 35.6051L41.3326 35.6879L41.6652 35.7707L41.9979 35.8535H42.9958L43.3285 35.7707L43.6611 35.6051L43.9938 35.5223L44.2433 35.3567L44.4928 35.1911L44.7423 35.0255L44.9086 34.7771L45.1581 34.5287L45.3244 34.1974L45.4908 33.8662L45.6571 33.4522L45.7402 33.0382L45.8234 32.5414V31.6306L45.7402 31.2166L45.6571 30.8853L45.5739 30.5541L45.4076 30.2229L45.2413 29.8917L45.0749 29.8089L44.9086 29.5605L44.6591 29.3121L44.4096 29.1465L44.077 28.9809L43.7443 28.8981L43.4117 28.8153L43.079 28.7325L42.7463 28.6497H42.4137V28.5669ZM36.0101 32.8726L35.5111 34.2803H35.4279L35.2616 33.6178L35.0121 32.8726L33.5151 28.7325H32.1845L34.7626 35.1911L34.8458 35.3567L34.9289 35.4395L34.8458 35.6051L34.7626 35.7707L34.5131 36.2675L34.2636 36.6815L33.931 37.0127L33.6815 37.2611L33.432 37.5096L33.0993 37.6752L32.8498 37.8408L32.6003 37.9236L32.933 39L33.1825 38.9172L33.5983 38.7516L34.0141 38.5032L34.4299 38.172L34.7626 37.8408L35.0952 37.4268L35.4279 37.0127L35.6774 36.5159L35.9269 35.9363L36.2595 35.2739L36.9249 33.7006L38.7545 28.6497H37.4238L36.0101 32.8726ZM26.6957 26.9108L25.4482 27.3248V28.7325H24.3671V29.7261H25.4482V34.1974L25.5314 34.6943L25.6977 35.1083L25.9472 35.4395L26.1967 35.6879L26.5293 35.8535L26.9452 35.9363H28.1095L28.6084 35.7707L28.359 34.7771L28.0263 34.8599L27.6936 34.9427L27.4442 34.8599H27.2778L27.1115 34.7771L26.9452 34.6115L26.862 34.4459L26.7788 34.1974L26.6957 33.949V29.7261H28.5253V28.7325H26.6957V26.9108ZM22.0385 33.4522V33.6178L21.9553 33.7834L21.8722 34.0318L21.7058 34.1974L21.6227 34.4459L21.4563 34.6115L21.2068 34.7771L20.9574 34.9427L20.6247 35.0255H20.0425L19.8762 34.9427L19.6267 34.7771L19.4604 34.6115L19.2941 34.4459L19.2109 34.1974L19.1277 34.0318V33.4522L19.2109 33.2038L19.2941 33.0382L19.3772 32.8726L19.5436 32.707L19.7099 32.5414L19.8762 32.3758L20.1257 32.293L20.6247 32.1274L21.1237 32.0446H22.1216V33.4522H22.0385ZM23.2859 31.465V30.9682L23.2028 30.4713L23.1196 30.2229L23.0365 29.9745L22.8701 29.7261L22.7038 29.4777L22.5375 29.3121L22.3711 29.1465L22.2048 28.9809L21.9553 28.8153L21.6227 28.7325L21.29 28.6497L20.9574 28.5669H20.5415L19.9594 28.6497L19.3772 28.7325L18.7951 28.9809L18.2961 29.2293L18.6288 30.0573L19.0446 29.8089L19.5436 29.6433L20.0425 29.5605L20.5415 29.4777L20.791 29.5605H21.0405L21.2068 29.6433L21.3732 29.7261L21.5395 29.8089L21.7058 29.8917L21.8722 30.1401L22.0385 30.3885L22.1216 30.6369L22.2048 30.8853V31.2994L21.2068 31.3822H20.791L20.2089 31.465L19.7931 31.6306L19.4604 31.7134L19.1277 31.879L18.8782 32.0446L18.6288 32.2102L18.4624 32.3758L18.2961 32.5414L18.1298 32.7898L17.9634 33.0382L17.8803 33.2866L17.7971 33.6178V34.3631L17.8803 34.6943L18.0466 35.0255L18.2961 35.3567L18.5456 35.6051L18.9614 35.8535L19.1277 35.9363L19.3772 36.0191H20.3752L20.7079 35.9363L21.0405 35.8535L21.29 35.6879L21.5395 35.5223L21.789 35.3567L21.9553 35.1911L22.1216 35.0255L22.288 35.9363H23.4523L23.3691 35.1083L23.2859 34.0318V31.465ZM78.5069 11.5924L78.6732 11.1783L78.8396 10.7643L79.0059 10.3503L79.2554 10.0191L79.5049 9.6879L79.7544 9.35669L80.0039 9.10828L80.3365 8.85987L80.6692 8.61146L81.0018 8.44586L81.3345 8.28025L81.6671 8.11465L82.083 8.03185L82.4988 7.94904L82.9146 7.86624H83.8294L84.3284 7.94904L84.8274 8.11465L85.3264 8.28025L85.7422 8.44586L86.158 8.69427L86.4907 8.94267L86.8233 9.19108L87.156 9.43949L87.4055 9.7707L87.655 10.1019L87.8213 10.4331L87.9876 10.7643L88.0708 11.0955L88.1539 11.3439V11.5924H78.5069ZM35.5942 18.879L35.0952 18.7962L34.5963 18.7134L34.0973 18.6306L33.5983 18.3822L33.0993 18.2166L32.6835 17.9682L32.2677 17.6369L31.8518 17.3885L31.5192 17.0573L31.1865 16.5605L30.937 16.1465L30.7707 15.7325L30.6044 15.2357L30.4381 14.7389L30.3549 14.1592V13.0828L30.4381 12.5032L30.6044 12.0064L30.7707 11.5096L31.0202 11.0127L31.2697 10.5987L31.6024 10.1847L31.935 9.8535L32.2677 9.52229L32.6835 9.19108L33.1825 8.94267L33.5983 8.77707L34.0973 8.61146L34.5963 8.52866L35.0952 8.44586L35.5942 8.36306L36.1764 8.44586L36.6754 8.52866L37.1744 8.61146L37.6733 8.77707L38.1723 8.94267L38.5881 9.19108L39.004 9.52229L39.3366 9.8535L39.6693 10.2675L40.0019 10.6815L40.2514 11.1783L40.5009 11.5924L40.6672 12.0892L40.8336 12.586L40.9167 13.0828V14.1592L40.8336 14.656L40.6672 15.1529L40.3346 15.7325L40.0851 16.1465L39.8356 16.6433L39.5861 17.0573L39.2535 17.3885L38.9208 17.7197L38.505 18.051L38.0892 18.2994L37.5902 18.465L37.0912 18.7134L36.5922 18.7962L36.0932 18.879H35.5942ZM9.31438 18.879L8.81539 18.7962L8.31641 18.7134L7.81742 18.6306L7.31844 18.3822L6.90262 18.2166L6.4868 17.9682L6.07098 17.6369L5.65516 17.3885L5.3225 17.0573L4.98985 16.5605L4.74035 16.1465L4.57403 15.7325L4.4077 15.2357L4.24137 14.7389L4.1582 14.242V13.1656L4.24137 12.586L4.4077 12.0892L4.57403 11.5924L4.82352 11.0955L4.98985 10.7643L5.3225 10.3503L5.65516 10.0191L5.98781 9.6879L6.40364 9.35669L6.90262 9.10828L7.31844 8.94267L7.81742 8.77707L8.31641 8.69427L8.81539 8.61146L9.31438 8.52866L9.81336 8.61146L10.3955 8.69427L10.8945 8.77707L11.3935 8.94267L11.8925 9.10828L12.3083 9.35669L12.7241 9.6879L13.0568 10.0191L13.3894 10.4331L13.7221 10.8471L13.9716 11.3439L14.2211 11.758L14.3874 12.2548L14.5537 12.7516L14.6369 13.2484V14.3248L14.5537 14.8217L14.3874 15.3185L14.0547 15.7325L13.8052 16.1465L13.5557 16.6433L13.3063 16.9745L12.9736 17.3885L12.6409 17.7197L12.2251 18.051L11.8093 18.2994L11.3103 18.465L10.8113 18.7134L10.3123 18.7962L9.7302 18.879H9.31438ZM101.876 4.22293H100.795L99.7969 4.38854L98.8821 4.55414L97.9673 4.80255L97.1357 5.13376L96.3872 5.54777L95.7219 5.96178L95.1397 6.4586L94.5576 7.03822L94.0586 7.61783L93.6428 8.28025L93.3101 8.94267L93.0606 9.6051L92.8943 10.3503L92.728 11.0955V11.9236L92.5616 11.0955L92.3121 10.2675L91.9795 9.52229L91.5637 8.77707L91.0647 8.11465L90.6489 7.36943L90.0667 6.78981L89.4846 6.21019L88.8193 5.71338L88.1539 5.29936L87.3223 4.96815L86.5738 4.63694L85.7422 4.38854L84.9105 4.22293L84.0789 4.14013L83.2473 4.05732L82.4156 4.14013L81.584 4.22293L80.7523 4.38854L80.0039 4.63694L79.3385 4.96815L78.5901 5.29936L77.9248 5.71338L77.2594 6.21019L76.6773 6.70701L76.0951 7.36943L75.6793 7.94904L75.1803 8.61146L74.7645 9.35669L74.4319 10.1019L74.1824 10.9299L73.9329 11.758V11.0127L73.7665 10.2675L73.6002 9.6051L73.3507 8.85987L73.1844 8.19745L72.7686 7.61783L72.3528 6.95541L71.9369 6.3758L71.438 5.87898L70.8558 5.38217L70.2737 4.96815L69.6083 4.63694L68.943 4.38854L68.1946 4.30573L67.4461 4.14013H66.0323L65.367 4.22293L64.7848 4.38854L64.2027 4.63694L63.6205 4.88535L63.0384 5.21656L62.5394 5.63057L62.0404 6.04459V0H57.6327V14.0764L57.5496 14.8217V15.3185L57.3832 15.7325L57.2169 16.2293L57.0506 16.6433L56.8842 17.0573L56.6347 17.3885L56.3853 17.7197L56.1358 17.9682L55.8863 18.2166L55.5536 18.465L55.221 18.6306L54.8883 18.7134L54.5556 18.879L54.1398 18.9618H53.8072L53.3913 19.0446L52.9755 18.9618H52.5597L52.1439 18.879L51.7281 18.7962L51.5617 18.6306L51.2291 18.465L50.8964 18.2994L50.6469 18.1338L50.3974 17.8853L50.1479 17.5541L49.8985 17.1401L49.7321 16.7261L49.5658 16.3121L49.4826 15.8153L49.3995 15.3185L49.3163 14.7389V8.52866H56.2189V4.38854H49.3163V0H44.8254V11.8408L44.6591 11.0127L44.4096 10.2675L44.077 9.52229L43.6611 8.85987L43.2453 8.11465L42.7463 7.45223L42.2474 6.78981L41.582 6.29299L40.9999 5.79618L40.3346 5.29936L39.5861 4.88535L38.8376 4.55414L38.006 4.30573L37.1744 4.14013L36.3427 4.05732L35.5111 3.97452H34.9289L34.3468 4.05732L33.8478 4.14013L33.3488 4.22293L32.7667 4.38854L32.2677 4.55414L31.7687 4.71975L31.2697 4.96815L30.8539 5.21656L30.3549 5.46497L29.9391 5.79618L29.5233 6.12739L29.1074 6.4586L28.6916 6.87261L28.2758 7.20382L27.9431 7.61783V4.22293H26.363L25.365 4.38854L24.4502 4.55414L23.6186 4.80255L22.787 5.13376L22.0385 5.46497L21.6227 5.87898L21.0405 6.3758L20.5415 6.95541L20.0425 7.45223L19.6267 8.11465L19.2941 8.77707L18.9614 9.43949L18.7951 10.1847L18.6288 10.9299L18.5456 11.6752L18.3793 10.9299L18.1298 10.1847L17.7971 9.43949L17.4645 8.69427L17.0486 8.03185L16.6328 7.45223L16.0507 6.87261L15.5517 6.3758L14.9695 5.87898L14.3874 5.46497L13.7221 5.05096L13.0568 4.71975L12.3083 4.47134L11.5598 4.30573L10.8113 4.14013H9.14805L8.23325 4.38854L7.4016 4.55414L6.73629 4.80255L6.07098 5.13376L5.48883 5.54777L4.82352 6.04459L4.32453 6.5414V0H0V13.6624L0.0831641 14.656L0.166328 15.5669L0.41582 16.5605L0.748477 17.3885L1.08113 18.2166L1.58012 18.9618L2.0791 19.707L2.66125 20.3694L3.2434 21.0318L3.57606 21.2803L3.90871 21.5287L4.32453 21.7771L4.74035 22.0255L5.15617 22.2739L5.57199 22.4395L5.98781 22.6051L6.4868 22.7707L6.98578 22.8535L7.4016 22.9363L7.90059 23.0191L8.31641 23.1847H10.146L11.0608 23.0191L11.8925 22.8535L12.7241 22.6051L13.4726 22.3567L14.1379 21.9427L14.8032 21.5287L15.3854 21.0318L15.9675 20.535L16.4665 19.9554L16.9655 19.3758L17.3813 18.7134L17.7971 18.051L18.1298 17.3057L18.3793 16.5605L18.5456 15.7325V22.7707H22.9533V12.8344L23.0365 12.3376L23.1196 11.8408L23.2028 11.4268L23.3691 11.0127L23.5354 10.6815L23.7849 10.3503L24.0344 10.0191L24.2839 9.7707L24.6166 9.52229L24.9492 9.27388L25.365 9.10828L25.7809 8.94267L26.1967 8.77707L26.6957 8.69427L27.1947 8.61146H27.6936L27.2778 9.10828L26.9452 9.6879L26.6957 10.3503L26.5293 11.0127L26.2799 11.5924L26.1135 12.2548L26.0304 12.9172V14.0764L26.1135 14.5732V15.0701L26.1967 15.5669L26.363 16.0637L26.4462 16.5605L26.6125 17.0573L26.7788 17.4713L27.1947 18.2994L27.6936 19.1274L28.1926 19.8726L28.7748 20.535L29.4401 21.1146L30.1886 21.6943L31.0202 22.1911L31.8518 22.6051L32.2677 22.7707L32.6835 22.9363L33.1825 23.1019L33.6815 23.1847L34.0973 23.2675L34.5963 23.3503L35.0952 23.4331H35.5942L36.4259 23.3503L37.2575 23.2675L38.0892 23.1019L38.9208 22.8535L39.6693 22.5223L40.4177 22.1083L41.0831 21.6943L41.6652 21.1975L42.2474 20.6178L42.7463 19.9554L43.2453 19.3758L43.6611 18.7134L44.077 18.051L44.4096 17.3057L44.6591 16.5605L44.8254 15.7325L44.9086 16.5605L44.9918 17.3885L45.1581 18.1338L45.4908 18.879L45.8234 19.5414L46.2392 20.121L46.6551 20.7006L47.2372 21.2803L47.8194 21.7771L48.4015 22.1911L49.0668 22.3567L49.7321 22.6879L50.4806 22.9363L51.2291 23.1019L52.0607 23.1847H53.5577L54.223 23.1019L54.8051 22.9363L55.3873 22.6879L55.9694 22.3567L56.4684 22.0255L56.9674 21.6115L57.4664 21.1146V22.6879H61.8741V13.1656L61.9572 12.6688V12.0892L62.0404 11.5096L62.1236 11.0127L62.2899 10.5987L62.4562 10.1847L62.6226 9.7707L62.8721 9.43949L63.1215 9.19108L63.4542 8.94267L63.7037 8.77707L64.0364 8.61146L64.369 8.44586L64.7017 8.28025L65.0343 8.19745H66.4481L66.7808 8.28025L67.1134 8.44586L67.4461 8.61146L67.6956 8.77707L68.1946 9.10828L68.444 9.35669L68.6935 9.6051L68.8599 9.93631L69.0262 10.3503L69.1925 10.7643L69.3589 11.1783L69.442 11.6752L69.5252 12.172V22.7707L74.016 22.8535V15.7325L74.2655 16.5605L74.515 17.3885L74.8477 18.1338L75.2635 18.879L75.6793 19.5414L76.1783 20.2038L76.7605 20.7834L77.3426 21.3631L78.0079 21.8599L78.6732 22.2739L79.4217 22.6879L80.1702 22.9363L80.9187 23.1847L81.7503 23.3503L82.5819 23.4331H84.4116L85.3264 23.2675L86.158 23.1019L86.9065 22.8535L87.655 22.5223L88.3203 22.1911L88.9024 21.7771L89.4846 21.2803L89.9836 20.7834L90.4825 20.2038L90.8984 19.6242L91.3142 18.9618L91.6468 18.3822L91.8963 17.7197L92.1458 17.0573L92.3121 16.3949H87.9876L87.8213 16.8917L87.4886 17.3885L87.3223 17.6369L87.0728 17.8853L86.8233 18.1338L86.5738 18.3822L86.2412 18.6306L85.9085 18.879L85.5759 19.0446L85.16 19.2102L84.7442 19.3758L84.3284 19.4586L83.9126 19.5414H82.9978L82.4988 19.4586L82.083 19.3758L81.6671 19.2102L81.1682 19.0446L80.7523 18.879L80.3365 18.6306L80.0039 18.3822L79.6712 18.051L79.3385 17.7197L79.0891 17.3885L79.0059 16.8917L78.7564 16.5605L78.5901 16.1465L78.4237 15.6497L78.2574 15.1529H92.6448V22.7707H97.0525V12.8344L97.1357 12.3376L97.2188 11.8408L97.302 11.3439L97.4683 10.9299L97.6346 10.5159L97.8841 10.1847L98.1336 9.8535L98.4663 9.6051L98.7989 9.35669L99.1316 9.10828L99.5474 8.94267L99.9632 8.77707L100.379 8.61146L100.878 8.52866L101.377 8.44586H102.375V4.22293H101.876Z" fill="white"/>
</g>
</g>
</g>
<defs>
<clipPath id="clip0_21618_1076">
<rect width="102.375" height="39" fill="white"/>
</clipPath>
</defs>
</svg>
