<svg width="17" height="16" viewBox="0 0 17 16" fill="none" xmlns="http://www.w3.org/2000/svg">
<g id="Icons/MapNav">
<path id="Icon (Stroke)" fill-rule="evenodd" clip-rule="evenodd" d="M13.9927 2.50709L3.33626 6.66571L7.5226 8.29373C7.52717 8.29551 7.53246 8.29752 7.53841 8.29979C7.59639 8.32185 7.71623 8.36745 7.82288 8.44352C7.91307 8.50786 7.99195 8.58673 8.05629 8.67693C8.13236 8.78358 8.17796 8.90341 8.20002 8.9614C8.20228 8.96734 8.2043 8.97264 8.20607 8.9772L9.8341 13.1635L13.9927 2.50709ZM14.2648 0.982875C14.3869 0.947401 14.6325 0.883659 14.8964 0.971802C15.1945 1.07139 15.4284 1.30532 15.528 1.60342C15.6161 1.86727 15.5524 2.11291 15.5169 2.23503C15.4783 2.36812 15.4163 2.52673 15.3542 2.68587L10.9426 13.9906C10.8732 14.1685 10.806 14.3408 10.7402 14.4738C10.6834 14.5887 10.557 14.8329 10.2946 14.9692C10.0052 15.1196 9.6607 15.1194 9.3715 14.9687C9.10925 14.8321 8.98308 14.5877 8.9264 14.4727C8.8608 14.3396 8.7938 14.1673 8.72462 13.9893L6.98466 9.51514L2.534 7.78433C2.52616 7.78128 2.51832 7.77823 2.5105 7.77519C2.33252 7.70601 2.16016 7.639 2.0271 7.5734C1.91213 7.51672 1.66775 7.39055 1.53112 7.12831C1.38044 6.83911 1.38024 6.49461 1.53058 6.20524C1.6669 5.94283 1.91113 5.81637 2.02603 5.75956C2.15902 5.6938 2.3313 5.6266 2.50919 5.5572C2.51702 5.55415 2.52485 5.55109 2.53269 5.54803L13.8139 1.1456C13.9731 1.08346 14.1317 1.02153 14.2648 0.982875Z" fill="#1965E1"/>
</g>
</svg>
