<svg width="20" height="20" viewBox="0 0 20 20" fill="none" xmlns="http://www.w3.org/2000/svg">
<g id="Icons/Minus">
<path id="Vector" d="M14.0368 10.6728L10.6727 10.6732L9.3268 10.6728L5.96317 10.6728C5.87384 10.6743 5.7851 10.6581 5.70212 10.625C5.61914 10.5918 5.54359 10.5425 5.47987 10.4799C5.41615 10.4173 5.36554 10.3426 5.33099 10.2602C5.29644 10.1778 5.27865 10.0894 5.27865 10C5.27865 9.9107 5.29644 9.82226 5.33099 9.73987C5.36554 9.65747 5.41615 9.58279 5.47987 9.52017C5.54359 9.45754 5.61914 9.40824 5.70212 9.37513C5.7851 9.34202 5.87384 9.32577 5.96317 9.32732L9.32727 9.32684H10.6727L14.0368 9.32732C14.1262 9.32577 14.2149 9.34202 14.2979 9.37513C14.3809 9.40824 14.4564 9.45754 14.5201 9.52017C14.5839 9.58279 14.6345 9.65747 14.669 9.73987C14.7036 9.82226 14.7213 9.9107 14.7213 10C14.7213 10.0894 14.7036 10.1778 14.669 10.2602C14.6345 10.3426 14.5839 10.4173 14.5201 10.4799C14.4564 10.5425 14.3809 10.5918 14.2979 10.625C14.2149 10.6581 14.1262 10.6743 14.0368 10.6728Z" fill="#212121"/>
</g>
</svg>
