<svg width="44" height="44" viewBox="0 0 44 44" fill="none" xmlns="http://www.w3.org/2000/svg">
<circle cx="22" cy="22" r="22" fill="#F5F5F5"/>
<path d="M25.2873 20.6355L21.6665 17.1001C21.4995 16.9313 21.4071 16.7052 21.4092 16.4705C21.4113 16.2358 21.5077 16.0114 21.6777 15.8454C21.8476 15.6795 22.0775 15.5853 22.3179 15.5833C22.5582 15.5812 22.7898 15.6715 22.9627 15.8345L28.1482 20.8978C28.2337 20.9807 28.3015 21.0793 28.3477 21.1879C28.394 21.2965 28.4178 21.413 28.4178 21.5306C28.4178 21.6482 28.394 21.7647 28.3477 21.8733C28.3015 21.9819 28.2337 22.0805 28.1482 22.1634L22.9627 27.2267C22.8781 27.3122 22.777 27.3803 22.6651 27.4273C22.5533 27.4742 22.433 27.4989 22.3113 27.4999C22.1896 27.5009 22.0689 27.4783 21.9562 27.4333C21.8436 27.3883 21.7412 27.3218 21.6551 27.2378C21.5691 27.1537 21.501 27.0538 21.4549 26.9438C21.4088 26.8338 21.3856 26.7159 21.3867 26.5971C21.3877 26.4782 21.413 26.3608 21.4611 26.2516C21.5091 26.1424 21.5789 26.0436 21.6665 25.9611L25.2873 22.4256H16.5002C16.257 22.4256 16.0239 22.3313 15.852 22.1635C15.6801 21.9956 15.5835 21.768 15.5835 21.5306C15.5835 21.2932 15.6801 21.0655 15.852 20.8977C16.0239 20.7298 16.257 20.6355 16.5002 20.6355H25.2873Z" fill="#4D4D4D"/>
</svg>
