<svg width="26" height="26" viewBox="0 0 26 26" fill="none" xmlns="http://www.w3.org/2000/svg">
<g id="Icons/RightArrow">
<path id="Vector" d="M16.8847 11.3875L12.6055 7.20926C12.4082 7.00976 12.299 6.74257 12.3014 6.46522C12.3039 6.18787 12.4178 5.92257 12.6187 5.72644C12.8196 5.53032 13.0913 5.41908 13.3753 5.41667C13.6594 5.41426 13.933 5.52087 14.1373 5.71356L20.2658 11.6974C20.3667 11.7954 20.4468 11.912 20.5015 12.0403C20.5561 12.1687 20.5843 12.3063 20.5843 12.4453C20.5843 12.5843 20.5561 12.7219 20.5015 12.8503C20.4468 12.9786 20.3667 13.0951 20.2658 13.1931L14.1373 19.177C14.0374 19.2781 13.9179 19.3586 13.7857 19.4141C13.6535 19.4695 13.5114 19.4987 13.3675 19.4999C13.2237 19.5011 13.081 19.4744 12.9479 19.4212C12.8147 19.368 12.6938 19.2895 12.5921 19.1901C12.4904 19.0908 12.4099 18.9727 12.3554 18.8427C12.301 18.7127 12.2736 18.5734 12.2748 18.433C12.2761 18.2925 12.306 18.1537 12.3627 18.0247C12.4195 17.8956 12.502 17.7789 12.6055 17.6813L16.8847 13.5031H6.49984C6.21252 13.5031 5.93697 13.3916 5.7338 13.1933C5.53064 12.9949 5.4165 12.7258 5.4165 12.4453C5.4165 12.1648 5.53064 11.8957 5.7338 11.6973C5.93697 11.499 6.21252 11.3875 6.49984 11.3875H16.8847Z" fill="white"/>
</g>
</svg>
