<svg width="17" height="16" viewBox="0 0 17 16" fill="none" xmlns="http://www.w3.org/2000/svg">
<g id="Icons/Phone">
<path id="Icon (Stroke)" fill-rule="evenodd" clip-rule="evenodd" d="M9.20387 1.25971C9.24452 0.893774 9.57413 0.630077 9.94007 0.67073C11.4432 0.83772 12.845 1.51086 13.9151 2.57962C14.9852 3.64839 15.6601 5.04926 15.829 6.55221C15.8701 6.9181 15.6068 7.24804 15.2409 7.28915C14.875 7.33026 14.5451 7.06698 14.504 6.7011C14.3689 5.49873 13.8289 4.37804 12.9728 3.52303C12.1168 2.66802 10.9954 2.1295 9.79285 1.99591C9.42691 1.95526 9.16322 1.62565 9.20387 1.25971ZM4.4367 3.10813C4.24751 3.01244 4.02409 3.01244 3.8349 3.10813C3.76375 3.14412 3.67506 3.22096 3.28371 3.61231L3.17862 3.7174C2.80514 4.09088 2.70447 4.19889 2.624 4.34215C2.53073 4.50819 2.45258 4.80869 2.45315 4.99913C2.45365 5.16861 2.47867 5.27066 2.58884 5.65883C3.13258 7.57454 4.15831 9.3824 5.66786 10.8919C7.17741 12.4015 8.98527 13.4272 10.901 13.971C11.2891 14.0811 11.3912 14.1062 11.5607 14.1067C11.7511 14.1072 12.0516 14.0291 12.2177 13.9358C12.3609 13.8553 12.4689 13.7547 12.8424 13.3812L12.9475 13.2761C13.3389 12.8848 13.4157 12.7961 13.4517 12.7249C13.5474 12.5357 13.5474 12.3123 13.4517 12.1231C13.4157 12.052 13.3389 11.9633 12.9475 11.5719L12.8176 11.442C12.5605 11.1849 12.5026 11.1322 12.4588 11.1037C12.2378 10.9601 11.953 10.9601 11.732 11.1037C11.6882 11.1322 11.6304 11.1849 11.3732 11.442C11.3682 11.4471 11.363 11.4523 11.3576 11.4577C11.2978 11.5177 11.2221 11.5937 11.1311 11.6588L10.743 11.1168L11.1311 11.6589C10.8065 11.8913 10.3651 11.9666 9.98172 11.8548C9.8748 11.8237 9.78679 11.7812 9.71833 11.7482C9.71292 11.7456 9.70763 11.7431 9.70246 11.7406C8.66915 11.2445 7.70136 10.5684 6.84638 9.71344C5.99139 8.85845 5.31533 7.89066 4.81922 6.85735C4.81674 6.85218 4.81418 6.84689 4.81157 6.84147C4.77857 6.77301 4.73615 6.68501 4.70498 6.5781L5.34501 6.39152L4.70498 6.57809C4.59323 6.19474 4.66849 5.75336 4.90096 5.4287L4.90096 5.4287C4.9661 5.33774 5.04211 5.262 5.10215 5.20218C5.1075 5.19685 5.11273 5.19165 5.1178 5.18657C5.37494 4.92943 5.42759 4.87161 5.45608 4.82779L5.45608 4.82779C5.59975 4.60683 5.59975 4.32197 5.45609 4.101L6.015 3.73761L5.45609 4.101C5.42759 4.05718 5.37494 3.99936 5.1178 3.74222L4.98789 3.61231C4.59654 3.22096 4.50785 3.14412 4.4367 3.10813ZM3.23311 1.91833C3.80067 1.63126 4.47093 1.63126 5.03849 1.91833C5.32689 2.0642 5.57726 2.31521 5.86689 2.60558C5.88794 2.62669 5.9092 2.648 5.9307 2.6695L6.06061 2.79941C6.07477 2.81358 6.08881 2.82759 6.1027 2.84146C6.29381 3.03224 6.45843 3.19658 6.57392 3.37421L6.04267 3.71962L6.57392 3.37421C7.00491 4.03711 7.00492 4.89169 6.57392 5.55458C6.45843 5.73221 6.29381 5.89655 6.10271 6.08733C6.08881 6.1012 6.07478 6.11521 6.06061 6.12938C6.02221 6.16778 6.00261 6.18748 5.98897 6.20192C5.98872 6.203 5.98847 6.2042 5.98825 6.2055C5.988 6.20695 5.98782 6.20829 5.9877 6.20949C5.98989 6.21437 5.99287 6.22082 5.99697 6.22953C6.00337 6.24314 6.0109 6.25883 6.02119 6.28026C6.45307 7.17978 7.04206 8.02351 7.78919 8.77063C8.53631 9.51775 9.38004 10.1067 10.2796 10.5386L9.99101 11.1396L10.2796 10.5386C10.301 10.5489 10.3167 10.5564 10.3303 10.5628C10.339 10.5669 10.3454 10.5699 10.3503 10.5721C10.3515 10.572 10.3529 10.5718 10.3543 10.5716C10.3556 10.5713 10.3568 10.5711 10.3579 10.5708C10.3723 10.5572 10.392 10.5376 10.4304 10.4992C10.4446 10.485 10.4586 10.471 10.4725 10.4571C10.6633 10.266 10.8276 10.1014 11.0052 9.98589C11.6681 9.5549 12.5227 9.5549 13.1856 9.98589C13.3632 10.1014 13.5276 10.266 13.7183 10.4571C13.7322 10.471 13.7462 10.485 13.7604 10.4992L13.8903 10.6291C13.9118 10.6506 13.9331 10.6719 13.9542 10.6929C14.2446 10.9826 14.4956 11.2329 14.6415 11.5213C14.9286 12.0889 14.9286 12.7591 14.6415 13.3267C14.4956 13.6151 14.2446 13.8655 13.9542 14.1551C13.9331 14.1762 13.9118 14.1974 13.8903 14.2189L13.7852 14.324C13.77 14.3392 13.755 14.3543 13.7401 14.3692C13.4299 14.6797 13.1921 14.9178 12.8707 15.0983C12.5041 15.3042 11.9772 15.4412 11.5567 15.44C11.1888 15.4389 10.9205 15.3626 10.5745 15.2643C10.5621 15.2608 10.5495 15.2572 10.5369 15.2536C8.40811 14.6494 6.39948 13.5092 4.72506 11.8348C3.05063 10.1603 1.9104 8.15171 1.30618 6.02289C1.30259 6.01027 1.29904 5.99776 1.29551 5.98535C1.19717 5.63934 1.12091 5.37103 1.11982 5.0031C1.11857 4.58259 1.25557 4.05576 1.46153 3.68913L1.46153 3.68913C1.64206 3.36775 1.88016 3.12989 2.19065 2.81972C2.20554 2.80485 2.22059 2.78981 2.23581 2.77459L2.3409 2.6695C2.3624 2.648 2.38366 2.62669 2.40471 2.60558C2.69434 2.31521 2.94471 2.0642 3.23311 1.91833L3.534 2.51323L3.23311 1.91833ZM9.21213 3.87232C9.28264 3.51095 9.63275 3.27515 9.99412 3.34566C10.7755 3.49811 11.4936 3.88026 12.0566 4.44321C12.6195 5.00615 13.0017 5.72427 13.1541 6.50566C13.2246 6.86703 12.9888 7.21714 12.6275 7.28765C12.2661 7.35816 11.916 7.12236 11.8455 6.76098C11.7438 6.24006 11.4891 5.76131 11.1138 5.38602C10.7385 5.01072 10.2597 4.75595 9.7388 4.65432C9.37742 4.58381 9.14163 4.2337 9.21213 3.87232Z" fill="#CCCCCC"/>
</g>
</svg>
