<svg width="80" height="81" viewBox="0 0 80 81" fill="none" xmlns="http://www.w3.org/2000/svg">
<g id="Icons/Play">
<g id="Group">
<path id="Vector" d="M48.7986 38.9965L37.7227 30.9451C37.3162 30.6504 36.7766 30.6061 36.3311 30.835C35.882 31.0622 35.6016 31.5237 35.6016 32.0225V48.1199C35.6016 48.624 35.882 49.0838 36.3311 49.311C36.521 49.4068 36.7287 49.4547 36.9381 49.4547C37.2115 49.4547 37.4884 49.3678 37.7227 49.1956L48.7986 41.1513C49.1483 40.8939 49.3524 40.4963 49.3524 40.0739C49.3542 39.6443 49.1448 39.2485 48.7986 38.9965Z" fill="white"/>
<path id="Vector_2" d="M40.0011 13.373C25.2687 13.373 13.3301 25.3117 13.3301 40.0441C13.3301 54.7712 25.2687 66.7063 40.0011 66.7063C54.7301 66.7063 66.6704 54.7695 66.6704 40.0441C66.6722 25.3117 54.7301 13.373 40.0011 13.373ZM40.0011 62.2564C27.7324 62.2564 17.7853 52.3146 17.7853 40.0441C17.7853 27.7789 27.7324 17.8247 40.0011 17.8247C52.2681 17.8247 62.2134 27.7771 62.2134 40.0441C62.2152 52.3146 52.2681 62.2564 40.0011 62.2564Z" fill="white"/>
</g>
</g>
</svg>
