<svg width="20" height="20" viewBox="0 0 20 20" fill="none" xmlns="http://www.w3.org/2000/svg">
<g id="Icons/Plus">
<path id="Vector" d="M10.6727 10.6732L14.0368 10.6728C14.1262 10.6743 14.2149 10.6581 14.2979 10.625C14.3809 10.5918 14.4564 10.5425 14.5201 10.4799C14.5839 10.4173 14.6345 10.3426 14.669 10.2602C14.7036 10.1778 14.7213 10.0894 14.7213 10C14.7213 9.9107 14.7036 9.82226 14.669 9.73987C14.6345 9.65747 14.5839 9.58279 14.5201 9.52017C14.4564 9.45754 14.3809 9.40824 14.2979 9.37513C14.2149 9.34202 14.1262 9.32577 14.0368 9.32732L10.6727 9.32684L10.6727 5.96321C10.6743 5.87389 10.658 5.78514 10.6249 5.70217C10.5918 5.61919 10.5425 5.54363 10.4799 5.47991C10.4173 5.41619 10.3426 5.36558 10.2602 5.33103C10.1778 5.29649 10.0893 5.27869 10 5.27869C9.91066 5.27869 9.82221 5.29649 9.73982 5.33103C9.65743 5.36558 9.58275 5.41619 9.52012 5.47991C9.4575 5.54363 9.4082 5.61919 9.37509 5.70217C9.34198 5.78514 9.32572 5.87389 9.32727 5.96321L9.32727 9.32684L5.96317 9.32732C5.87384 9.32577 5.7851 9.34202 5.70212 9.37513C5.61914 9.40824 5.54359 9.45754 5.47987 9.52017C5.41615 9.58279 5.36554 9.65747 5.33099 9.73987C5.29644 9.82226 5.27865 9.9107 5.27865 10C5.27865 10.0894 5.29644 10.1778 5.33099 10.2602C5.36554 10.3426 5.41615 10.4173 5.47987 10.4799C5.54359 10.5425 5.61914 10.5918 5.70212 10.625C5.7851 10.6581 5.87384 10.6743 5.96317 10.6728L9.3268 10.6728L9.32727 14.0369C9.32572 14.1262 9.34198 14.2149 9.37509 14.2979C9.4082 14.3809 9.4575 14.4565 9.52012 14.5202C9.58275 14.5839 9.65743 14.6345 9.73982 14.6691C9.82221 14.7036 9.91066 14.7214 10 14.7214C10.0893 14.7214 10.1778 14.7036 10.2602 14.6691C10.3426 14.6345 10.4173 14.5839 10.4799 14.5202C10.5425 14.4565 10.5918 14.3809 10.6249 14.2979C10.658 14.2149 10.6743 14.1262 10.6727 14.0369L10.6727 10.6732Z" fill="#212121"/>
</g>
</svg>
