<svg width="22" height="22" viewBox="0 0 22 22" fill="none" xmlns="http://www.w3.org/2000/svg">
<g id="Icons/RightArrow">
<path id="Vector" d="M14.2873 9.63554L10.6665 6.1001C10.4995 5.93129 10.4071 5.7052 10.4092 5.47052C10.4113 5.23584 10.5077 5.01135 10.6777 4.84541C10.8476 4.67946 11.0775 4.58533 11.3179 4.58329C11.5582 4.58125 11.7898 4.67146 11.9627 4.8345L17.1482 9.89779C17.2337 9.98072 17.3015 10.0793 17.3477 10.1879C17.394 10.2965 17.4178 10.413 17.4178 10.5306C17.4178 10.6482 17.394 10.7647 17.3477 10.8733C17.3015 10.9819 17.2337 11.0805 17.1482 11.1634L11.9627 16.2267C11.8781 16.3122 11.777 16.3803 11.6651 16.4273C11.5533 16.4742 11.433 16.4989 11.3113 16.4999C11.1896 16.5009 11.0689 16.4783 10.9562 16.4333C10.8436 16.3883 10.7412 16.3218 10.6551 16.2378C10.5691 16.1537 10.501 16.0538 10.4549 15.9438C10.4088 15.8338 10.3856 15.7159 10.3867 15.5971C10.3877 15.4782 10.413 15.3608 10.4611 15.2516C10.5091 15.1424 10.5789 15.0436 10.6665 14.9611L14.2873 11.4256H5.50016C5.25705 11.4256 5.02389 11.3313 4.85198 11.1635C4.68007 10.9956 4.5835 10.768 4.5835 10.5306C4.5835 10.2932 4.68007 10.0655 4.85198 9.89769C5.02389 9.72984 5.25705 9.63554 5.50016 9.63554H14.2873Z" fill="#4D4D4D"/>
</g>
</svg>
