<svg width="44" height="44" viewBox="0 0 44 44" fill="none" xmlns="http://www.w3.org/2000/svg">
<circle cx="22" cy="22" r="22" fill="#F5F5F5"/>
<path d="M18.7139 22.4477L22.3347 25.9832C22.5017 26.152 22.5941 26.3781 22.592 26.6127C22.5899 26.8474 22.4935 27.0719 22.3236 27.2378C22.1536 27.4038 21.9237 27.4979 21.6833 27.5C21.443 27.502 21.2114 27.4118 21.0386 27.2487L15.853 22.1855C15.7676 22.1025 15.6998 22.0039 15.6535 21.8953C15.6073 21.7867 15.5834 21.6703 15.5834 21.5527C15.5834 21.435 15.6073 21.3186 15.6535 21.21C15.6998 21.1014 15.7676 21.0028 15.853 20.9199L21.0386 15.8566C21.1231 15.7711 21.2243 15.7029 21.3361 15.656C21.4479 15.6091 21.5682 15.5844 21.6899 15.5834C21.8117 15.5823 21.9324 15.605 22.045 15.65C22.1577 15.695 22.26 15.7614 22.3461 15.8455C22.4322 15.9295 22.5002 16.0295 22.5463 16.1395C22.5924 16.2495 22.6156 16.3673 22.6145 16.4862C22.6135 16.605 22.5882 16.7224 22.5402 16.8316C22.4921 16.9408 22.4223 17.0396 22.3347 17.1222L18.7139 20.6576L27.5011 20.6576C27.7442 20.6576 27.9773 20.7519 28.1492 20.9198C28.3211 21.0876 28.4177 21.3153 28.4177 21.5527C28.4177 21.79 28.3211 22.0177 28.1492 22.1856C27.9773 22.3534 27.7442 22.4477 27.5011 22.4477L18.7139 22.4477Z" fill="#4D4D4D"/>
</svg>
