<svg width="26" height="26" viewBox="0 0 26 26" fill="none" xmlns="http://www.w3.org/2000/svg">
<g id="Icons/LeftArrow">
<path id="Vector" d="M9.11631 13.5291L13.3955 17.7074C13.5928 17.9069 13.702 18.1741 13.6995 18.4514C13.6971 18.7288 13.5831 18.9941 13.3823 19.1902C13.1814 19.3863 12.9097 19.4975 12.6257 19.5C12.3416 19.5024 12.068 19.3958 11.8636 19.2031L5.73522 13.2192C5.63427 13.1212 5.55416 13.0047 5.4995 12.8763C5.44483 12.748 5.41669 12.6103 5.41669 12.4713C5.41669 12.3323 5.44483 12.1947 5.4995 12.0664C5.55416 11.938 5.63427 11.8215 5.73522 11.7235L11.8636 5.7396C11.9636 5.63857 12.0831 5.55798 12.2153 5.50255C12.3475 5.44711 12.4896 5.41793 12.6335 5.41671C12.7773 5.41549 12.92 5.44225 13.0531 5.49544C13.1862 5.54862 13.3072 5.62717 13.4089 5.72648C13.5106 5.8258 13.5911 5.94391 13.6455 6.0739C13.7 6.2039 13.7274 6.34319 13.7262 6.48364C13.7249 6.62409 13.695 6.7629 13.6383 6.89195C13.5815 7.021 13.4989 7.13772 13.3955 7.2353L9.11631 11.4135L19.5011 11.4135C19.7885 11.4135 20.064 11.525 20.2672 11.7234C20.4703 11.9217 20.5845 12.1908 20.5845 12.4713C20.5845 12.7519 20.4703 13.0209 20.2672 13.2193C20.064 13.4177 19.7885 13.5291 19.5011 13.5291L9.11631 13.5291Z" fill="#CCCCCC"/>
</g>
</svg>
