<svg width="40" height="20" viewBox="0 0 40 20" fill="none" xmlns="http://www.w3.org/2000/svg">
<path d="M38.1 0H11C10.8 0 10.6 0.0999998 10.5 0.2C10.3 0.3 10.2 0.4 10 0.5L0.6 8.8C-0.2 9.5 -0.2 10.7 0.6 11.4L10 19.7C10.1 19.8 10.3 19.9 10.4 20C10.6 20 10.8 20 11 20H38.2C39.2 20 40.1 19.2 40.1 18.1V1.9C40 0.9 39.2 0 38.1 0ZM10.4 13.1C8.7 13.1 7.3 11.7 7.3 10C7.3 8.3 8.7 6.9 10.4 6.9C12.1 6.9 13.5 8.3 13.5 10C13.5 11.7 12.1 13.1 10.4 13.1ZM26.1 8.9C27.9 8.9 29.4 10.4 29.4 12.2C29.4 13.6 28.5 14.9 27.2 15.3V16.6C27.2 17.2 26.7 17.7 26.1 17.7C25.5 17.7 25 17.2 25 16.6V15.5H23.9C23.3 15.5 22.8 15 22.8 14.4C22.8 13.8 23.3 13.3 23.9 13.3H26.1C26.7 13.3 27.2 12.8 27.2 12.2C27.2 11.6 26.7 11.1 26.1 11.1C24.3 11.1 22.8 9.6 22.8 7.8C22.8 6.4 23.7 5.1 25 4.7V3.4C25 2.8 25.5 2.3 26.1 2.3C26.7 2.3 27.2 2.8 27.2 3.4V4.5H28.3C28.9 4.5 29.4 5 29.4 5.6C29.4 6.2 28.9 6.7 28.3 6.7H26.1C25.5 6.7 25 7.2 25 7.8C25 8.4 25.5 8.9 26.1 8.9Z" fill="#008931"/>
</svg>
