<svg width="16" height="17" viewBox="0 0 16 17" fill="none" xmlns="http://www.w3.org/2000/svg">
<path d="M3.46875 2.45996H11.4062L12.5 3.52246V5.95996H14V3.52246C14 3.14746 13.8125 2.74121 13.5312 2.45996L12.5 1.42871C12.2188 1.14746 11.8125 0.959961 11.4375 0.959961H3.46875C2.65625 0.959961 2 1.64746 2 2.45996V5.05371V5.95996H3.5L3.46875 2.45996ZM13.75 6.95996H2.25C1 6.95996 0 7.99121 0 9.20996V12.71C0 13.1475 0.3125 13.46 0.75 13.46H2.5V15.96C2.5 16.5225 2.9375 16.96 3.5 16.96H12.5C13.0312 16.96 13.5 16.5225 13.5 15.96V13.46H15.25C15.6562 13.46 16 13.1475 16 12.71V9.20996C16 7.99121 14.9688 6.95996 13.75 6.95996ZM12 15.46H4V12.46H12V15.46ZM14.5 11.96H13.5C13.5 11.4287 13.0312 10.96 12.5 10.96H3.5C2.9375 10.96 2.5 11.4287 2.5 11.96H1.5V9.20996C1.5 8.80371 1.8125 8.45996 2.25 8.45996H13.75C14.1562 8.45996 14.5 8.80371 14.5 9.20996V11.96Z" fill="#1965E1"/>
</svg>
