<svg width="40" height="40" viewBox="0 0 40 40" fill="none" xmlns="http://www.w3.org/2000/svg">
<g id="Icons/Printer">
<path id="Icon (Stroke)" fill-rule="evenodd" clip-rule="evenodd" d="M15.2691 1.66669H24.7309C25.6095 1.66666 26.3674 1.66663 26.9917 1.71764C27.6506 1.77147 28.306 1.89033 28.9366 2.21166C29.8774 2.69102 30.6423 3.45593 31.1217 4.39674C31.443 5.02737 31.5619 5.68273 31.6157 6.34164C31.6667 6.96592 31.6667 7.72385 31.6667 8.60241V10.0453C31.8112 10.0532 31.9511 10.0626 32.0864 10.0737C33.0232 10.1502 33.8844 10.3145 34.6933 10.7266C35.9477 11.3658 36.9675 12.3857 37.6067 13.6401C38.0189 14.449 38.1831 15.3102 38.2597 16.247C38.3334 17.149 38.3334 18.2562 38.3333 19.5978V23.3334C38.3333 23.4109 38.3334 23.4873 38.3334 23.5626C38.3341 24.8883 38.3347 25.8727 38.1062 26.7255C37.4897 29.0261 35.6927 30.8231 33.3921 31.4395C32.8797 31.5768 32.3197 31.6314 31.6666 31.653C31.6662 32.4238 31.6617 33.0954 31.6157 33.6584C31.5619 34.3173 31.443 34.9727 31.1217 35.6033C30.6423 36.5441 29.8774 37.309 28.9366 37.7884C28.306 38.1097 27.6506 38.2286 26.9917 38.2824C26.3674 38.3334 25.6095 38.3334 24.7309 38.3334H15.2691C14.3905 38.3334 13.6326 38.3334 13.0083 38.2824C12.3494 38.2286 11.694 38.1097 11.0634 37.7884C10.1226 37.309 9.35767 36.5441 8.8783 35.6033C8.55697 34.9727 8.43811 34.3173 8.38428 33.6584C8.33828 33.0954 8.33379 32.4238 8.33337 31.653C7.68033 31.6314 7.12033 31.5768 6.60787 31.4395C4.30726 30.8231 2.51027 29.0261 1.89383 26.7255C1.66533 25.8727 1.66586 24.8883 1.66658 23.5627C1.66662 23.4873 1.66666 23.4109 1.66666 23.3334L1.66666 19.5979C1.66664 18.2562 1.66663 17.149 1.74032 16.247C1.81686 15.3102 1.98114 14.449 2.39329 13.6401C3.03244 12.3857 4.05231 11.3658 5.30673 10.7266C6.11562 10.3145 6.97679 10.1502 7.91362 10.0737C8.04888 10.0626 8.18875 10.0532 8.33333 10.0453L8.33333 8.60245C8.3333 7.72387 8.33327 6.96593 8.38428 6.34164C8.43811 5.68273 8.55697 5.02737 8.8783 4.39674C9.35766 3.45593 10.1226 2.69102 11.0634 2.21166C11.694 1.89033 12.3494 1.77147 13.0083 1.71764C13.6326 1.66663 14.3905 1.66666 15.2691 1.66669ZM11.6667 10H28.3333V8.66669C28.3333 7.70577 28.332 7.08531 28.2934 6.61308C28.2565 6.16031 28.1937 5.99245 28.1517 5.91004C27.9919 5.59644 27.7369 5.34147 27.4233 5.18168C27.3409 5.13969 27.173 5.07689 26.7203 5.0399C26.248 5.00132 25.6276 5.00002 24.6667 5.00002H15.3333C14.3724 5.00002 13.752 5.00132 13.2797 5.0399C12.827 5.07689 12.6591 5.13969 12.5767 5.18168C12.2631 5.34147 12.0081 5.59644 11.8483 5.91004C11.8063 5.99245 11.7435 6.16031 11.7065 6.61308C11.668 7.08531 11.6667 7.70577 11.6667 8.66669V10ZM11.6667 31.3334C11.6667 32.2943 11.668 32.9147 11.7065 33.387C11.7435 33.8397 11.8063 34.0076 11.8483 34.09C12.0081 34.4036 12.2631 34.6586 12.5767 34.8184C12.6591 34.8604 12.827 34.9231 13.2797 34.9601C13.752 34.9987 14.3724 35 15.3333 35H24.6667C25.6276 35 26.248 34.9987 26.7203 34.9601C27.173 34.9231 27.3409 34.8604 27.4233 34.8184C27.7369 34.6586 27.9919 34.4036 28.1517 34.09C28.1937 34.0076 28.2565 33.8397 28.2935 33.387C28.332 32.9147 28.3333 32.2943 28.3333 31.3334V28.6667C28.3333 27.7058 28.332 27.0853 28.2935 26.6131C28.2565 26.1603 28.1937 25.9924 28.1517 25.91C27.9919 25.5964 27.7369 25.3415 27.4233 25.1817C27.3409 25.1397 27.173 25.0769 26.7203 25.0399C26.248 25.0013 25.6276 25 24.6667 25H15.3333C14.3724 25 13.752 25.0013 13.2797 25.0399C12.827 25.0769 12.6591 25.1397 12.5767 25.1817C12.2631 25.3415 12.0081 25.5964 11.8483 25.91C11.8063 25.9924 11.7435 26.1603 11.7065 26.6131C11.668 27.0853 11.6667 27.7058 11.6667 28.6667V31.3334ZM31.6666 28.3169C31.6661 27.5587 31.6611 26.8973 31.6157 26.3416C31.5619 25.6827 31.443 25.0274 31.1217 24.3967C30.6423 23.4559 29.8774 22.691 28.9366 22.2117C28.306 21.8903 27.6506 21.7715 26.9917 21.7176C26.3674 21.6666 25.6095 21.6667 24.7309 21.6667H15.2691C14.3905 21.6667 13.6326 21.6666 13.0083 21.7176C12.3494 21.7715 11.694 21.8903 11.0634 22.2117C10.1226 22.691 9.35766 23.4559 8.8783 24.3967C8.55697 25.0274 8.43811 25.6827 8.38428 26.3416C8.33888 26.8973 8.33391 27.5587 8.33339 28.3169C7.90406 28.3016 7.66859 28.2728 7.4706 28.2198C6.32029 27.9116 5.4218 27.0131 5.11358 25.8628C5.01431 25.4923 5 24.9906 5 23.3334V19.6667C5 18.2391 5.00129 17.2686 5.06258 16.5184C5.12228 15.7877 5.23049 15.4141 5.36331 15.1534C5.68289 14.5262 6.19282 14.0162 6.82003 13.6967C7.0807 13.5639 7.45437 13.4556 8.18506 13.3959C8.93521 13.3347 9.9057 13.3334 11.3333 13.3334H28.6667C30.0943 13.3334 31.0648 13.3347 31.8149 13.3959C32.5456 13.4556 32.9193 13.5639 33.18 13.6967C33.8072 14.0162 34.3171 14.5262 34.6367 15.1534C34.7695 15.4141 34.8777 15.7877 34.9374 16.5184C34.9987 17.2686 35 18.2391 35 19.6667V23.3334C35 24.9906 34.9857 25.4923 34.8864 25.8628C34.5782 27.0131 33.6797 27.9116 32.5294 28.2198C32.3314 28.2728 32.0959 28.3016 31.6666 28.3169ZM23.3333 17.5C23.3333 16.5795 24.0795 15.8334 25 15.8334H30C30.9205 15.8334 31.6667 16.5795 31.6667 17.5C31.6667 18.4205 30.9205 19.1667 30 19.1667H25C24.0795 19.1667 23.3333 18.4205 23.3333 17.5Z" fill="#0D2EA0"/>
</g>
</svg>
