<svg width="45" height="45" viewBox="0 0 45 45" fill="none" xmlns="http://www.w3.org/2000/svg">
<circle cx="23" cy="22" r="20" fill="#0D2EA0"/>
<path d="M21.6142 14.0006C20.0987 14.0657 18.7459 14.6502 17.702 15.691C14.9345 18.4503 14.9878 23.6516 15.0029 24.2269L15.0031 29.6509C15.0031 29.8436 15.1648 30 15.364 30H20.9023C21.1015 30 21.2632 29.8436 21.2632 29.6509V24.2941C21.2632 24.1014 21.1015 23.945 20.9023 23.945H18.0719C18.0724 23.4979 18.1284 19.5278 19.91 17.757C20.3921 17.2776 20.9631 17.0216 21.6557 16.9743C21.8448 16.9614 21.9911 16.8093 21.9911 16.6261V14.3495C21.9911 14.2542 21.9509 14.1631 21.8798 14.0973C21.8085 14.0313 21.7139 13.9947 21.6142 14.0006Z" fill="white"/>
<path d="M30.8886 14.0971C30.8173 14.0313 30.7251 13.9947 30.623 14.0006C29.1077 14.0656 27.7547 14.6502 26.7106 15.691C23.9434 18.4503 23.9964 23.6516 24.0116 24.2269L24.0118 29.6509C24.0118 29.8436 24.1735 30 24.3727 30H29.9108C30.11 30 30.2717 29.8436 30.2717 29.6509V24.2941C30.2717 24.1014 30.11 23.945 29.9108 23.945H27.0809C27.0814 23.4979 27.1374 19.5278 28.9188 17.757C29.4012 17.2776 29.9721 17.0216 30.6647 16.9743C30.8538 16.9614 31 16.8093 31 16.6261V14.3495C31 14.2544 30.9597 14.1633 30.8886 14.0971Z" fill="white"/>
</svg>
