<svg width="40" height="40" viewBox="0 0 40 40" fill="none" xmlns="http://www.w3.org/2000/svg">
<g id="Icons/Repair">
<path id="Icon (Stroke)" fill-rule="evenodd" clip-rule="evenodd" d="M3.80911 2.15202C4.25294 1.7082 4.90942 1.55322 5.50487 1.75171L10.4762 3.4088C11.1528 3.63435 11.6092 4.26759 11.6092 4.98086V9.26574L16.7627 14.4192C16.6429 13.7757 16.5805 13.1133 16.5805 12.4378C16.5805 6.48906 21.4029 1.66667 27.3516 1.66667C29.318 1.66667 31.166 2.19513 32.756 3.11887C33.2007 3.37728 33.5003 3.82757 33.5667 4.33764C33.6332 4.84771 33.459 5.35971 33.0952 5.72343L28.741 10.0776C28.3936 10.4251 28.2044 10.6161 28.0789 10.7639C28.0739 10.7698 28.0692 10.7754 28.0648 10.7807C28.0692 10.786 28.0739 10.7916 28.0789 10.7975C28.2044 10.9452 28.3936 11.1363 28.741 11.4837L29.1342 11.8769C29.4816 12.2243 29.6727 12.4135 29.8204 12.539C29.8263 12.544 29.8319 12.5487 29.8372 12.5531C29.8425 12.5487 29.8482 12.544 29.854 12.539C30.0018 12.4135 30.1928 12.2243 30.5403 11.8769L34.6133 7.80389C35.0052 7.41198 35.5671 7.24195 36.1105 7.35083C36.654 7.45972 37.107 7.8331 37.3177 8.34575C37.8371 9.60957 38.1227 10.9924 38.1227 12.4378C38.1227 17.4167 34.7445 21.6066 30.1552 22.8404L35.1517 27.8368C37.1716 29.8567 37.1716 33.1316 35.1517 35.1515C33.1318 37.1714 29.8569 37.1714 27.8369 35.1515L19.8948 27.2094L11.9524 35.1517C9.9325 37.1716 6.65758 37.1716 4.63766 35.1517C2.61775 33.1318 2.61775 29.8568 4.63766 27.8369L15.0656 17.409L9.26574 11.6092H4.98086C4.26759 11.6092 3.63435 11.1528 3.4088 10.4762L1.75171 5.50487C1.55322 4.90942 1.7082 4.25294 2.15202 3.80911L3.80911 2.15202ZM8.29504 8.29504V6.17522L5.42842 5.21968L5.21968 5.42842L6.17522 8.29504H8.29504ZM18.5792 18.5823L6.98114 30.1804C6.2555 30.9061 6.2555 32.0826 6.98114 32.8082C7.70679 33.5339 8.88329 33.5339 9.60894 32.8082L21.4688 20.9484C21.5001 20.917 21.5322 20.8848 21.5649 20.8519C21.6324 20.7838 21.7029 20.7128 21.7762 20.6409L21.9371 20.48C22.1238 20.2934 22.3248 20.1358 22.5356 20.0053C22.5979 19.9647 22.6615 19.9268 22.7261 19.8922C22.888 19.8056 23.0844 19.7102 23.3234 19.6375C23.5623 19.5648 23.7786 19.5346 23.9612 19.5164C23.9969 19.5129 24.0325 19.5102 24.0679 19.5082C24.5154 19.4712 24.9611 19.5167 25.3722 19.6295C25.5445 19.6768 25.7193 19.7181 25.8966 19.7531C25.8973 19.7533 25.898 19.7534 25.8987 19.7536C25.9309 19.7599 25.9631 19.766 25.9954 19.772C26.2066 19.8107 26.421 19.8406 26.6383 19.8611C26.8727 19.8833 27.1106 19.8947 27.3516 19.8947C31.4699 19.8947 34.8085 16.5561 34.8085 12.4378C34.8085 12.3907 34.8081 12.3438 34.8072 12.2969L32.8464 14.2577C32.5507 14.5535 32.2627 14.8415 31.9989 15.0655C31.7092 15.3115 31.3415 15.5759 30.8614 15.7319C30.1957 15.9482 29.4787 15.9482 28.8131 15.7319C28.333 15.5759 27.9653 15.3115 27.6756 15.0655C27.4117 14.8415 27.1238 14.5535 26.8281 14.2577L26.3602 13.7898C26.0644 13.4941 25.7764 13.2062 25.5524 12.9423C25.3064 12.6526 25.042 12.2849 24.886 11.8048C24.6697 11.1392 24.6697 10.4222 24.886 9.75654C25.042 9.27645 25.3064 8.90876 25.5524 8.61902C25.7764 8.35519 26.0644 8.06723 26.3601 7.77155L28.9742 5.15753C28.4524 5.04188 27.9095 4.98086 27.3516 4.98086C23.2333 4.98086 19.8947 8.31943 19.8947 12.4378C19.8947 12.9364 19.9434 13.422 20.0358 13.8906L20.0419 13.9213C20.1161 14.2979 20.1808 14.6259 20.2225 14.8892C20.2615 15.136 20.3078 15.4786 20.2729 15.8281C20.2547 16.0108 20.2246 16.2271 20.1519 16.466C20.0792 16.7049 19.9838 16.9014 19.8972 17.0632C19.6595 17.5075 19.2645 17.8998 18.9375 18.2245C18.9046 18.2572 18.8723 18.2892 18.841 18.3206L18.5823 18.5792C18.5818 18.5798 18.5813 18.5803 18.5808 18.5808C18.5803 18.5813 18.5798 18.5818 18.5792 18.5823ZM22.2383 24.8659L30.1804 32.808C30.9061 33.5337 32.0826 33.5337 32.8082 32.808C33.5338 32.0824 33.5338 30.9059 32.8082 30.1803L25.7126 23.0847C25.5598 23.0614 25.4081 23.0348 25.2575 23.0051C24.8414 22.923 24.5759 22.871 24.3825 22.8404C24.3448 22.8344 24.3141 22.83 24.2893 22.8267C24.2832 22.8321 24.2766 22.838 24.2694 22.8446C24.1727 22.9323 24.0462 23.0579 23.8264 23.2777C23.8217 23.2824 23.817 23.2871 23.8123 23.2919L22.2383 24.8659Z" fill="#0D2EA0"/>
</g>
</svg>
