<svg width="20" height="21" viewBox="0 0 20 21" fill="none" xmlns="http://www.w3.org/2000/svg">
<g id="Icons/RightArrow">
<path id="Vector" d="M12.9877 9.71957L9.69602 6.50554C9.54422 6.35208 9.46022 6.14654 9.46212 5.9332C9.46402 5.71985 9.55166 5.51577 9.70617 5.36491C9.86067 5.21405 10.0697 5.12847 10.2882 5.12662C10.5067 5.12476 10.7172 5.20678 10.8744 5.355L15.5885 9.95798C15.6662 10.0334 15.7278 10.123 15.7698 10.2217C15.8119 10.3205 15.8335 10.4263 15.8335 10.5333C15.8335 10.6402 15.8119 10.746 15.7698 10.8448C15.7278 10.9435 15.6662 11.0331 15.5885 11.1085L10.8744 15.7115C10.7975 15.7892 10.7055 15.8512 10.6039 15.8939C10.5022 15.9365 10.3928 15.959 10.2822 15.9599C10.1715 15.9608 10.0618 15.9402 9.95939 15.8993C9.85697 15.8584 9.76393 15.798 9.68569 15.7216C9.60744 15.6452 9.54557 15.5544 9.50366 15.4544C9.46176 15.3544 9.44068 15.2472 9.44164 15.1392C9.4426 15.0311 9.46559 14.9244 9.50926 14.8251C9.55294 14.7258 9.61642 14.636 9.69602 14.561L12.9877 11.3469H4.99935C4.77834 11.3469 4.56637 11.2612 4.41009 11.1086C4.25381 10.956 4.16602 10.7491 4.16602 10.5333C4.16602 10.3175 4.25381 10.1105 4.41009 9.9579C4.56637 9.8053 4.77834 9.71957 4.99935 9.71957H12.9877Z" fill="#4D4D4D"/>
</g>
</svg>
