<svg width="24" height="24" viewBox="0 0 24 24" fill="none" xmlns="http://www.w3.org/2000/svg">
<g id="Icons/Search">
<path id="Vector (Stroke) (Stroke)" fill-rule="evenodd" clip-rule="evenodd" d="M5.88474 5.88488C7.33163 4.43791 9.29403 3.625 11.3403 3.625C13.3865 3.625 15.3489 4.43791 16.7958 5.88488C18.2427 7.33186 19.0555 9.29438 19.0555 11.3407C19.0555 12.9993 18.5215 14.6029 17.5486 15.9215L19.7196 18.0964C20.1673 18.545 20.1667 19.2717 19.7181 19.7195C19.2695 20.1673 18.5428 20.1666 18.095 19.718L15.9264 17.5454C14.6068 18.5208 13.0011 19.0564 11.3403 19.0564C9.29403 19.0564 7.33163 18.2435 5.88474 16.7965C4.43785 15.3495 3.625 13.387 3.625 11.3407C3.625 9.29438 4.43785 7.33186 5.88474 5.88488ZM6.97744 6.97765C8.13453 5.8205 9.70388 5.17041 11.3403 5.17041C12.9766 5.17041 14.546 5.8205 15.7031 6.97765C16.8601 8.13481 17.5102 9.70424 17.5102 11.3407C17.5102 12.9772 16.8601 14.5466 15.7031 15.7037C14.546 16.8609 12.9766 17.511 11.3403 17.511C9.70388 17.511 8.13453 16.8609 6.97744 15.7037C5.82036 14.5466 5.17032 12.9772 5.17032 11.3407C5.17032 9.70424 5.82036 8.13481 6.97744 6.97765Z" fill="#545454"/>
</g>
</svg>
