<svg width="16" height="16" viewBox="0 0 16 16" fill="none" xmlns="http://www.w3.org/2000/svg">
<g id="Icons/Search">
<path id="Vector (Stroke) (Stroke)" fill-rule="evenodd" clip-rule="evenodd" d="M3.92299 3.92326C4.88759 2.95861 6.19586 2.41667 7.56 2.41667C8.92415 2.41667 10.2324 2.95861 11.197 3.92326C12.1616 4.88791 12.7035 6.19626 12.7035 7.56047C12.7035 8.66623 12.3475 9.73527 11.6989 10.6143L13.1462 12.0643C13.4447 12.3634 13.4443 12.8478 13.1453 13.1463C12.8462 13.4449 12.3617 13.4444 12.0632 13.1453L10.6174 11.6969C9.73768 12.3472 8.66726 12.7043 7.56 12.7043C6.19586 12.7043 4.88759 12.1623 3.92299 11.1977C2.9584 10.233 2.4165 8.92469 2.4165 7.56047C2.4165 6.19626 2.9584 4.88791 3.92299 3.92326ZM4.65146 4.65177C5.42285 3.88034 6.46909 3.44695 7.56 3.44695C8.65092 3.44695 9.69715 3.88034 10.4685 4.65177C11.2399 5.42321 11.6733 6.4695 11.6733 7.56047C11.6733 8.65144 11.2399 9.69773 10.4685 10.4692C9.69715 11.2406 8.65092 11.674 7.56 11.674C6.46909 11.674 5.42285 11.2406 4.65146 10.4692C3.88007 9.69773 3.44671 8.65144 3.44671 7.56047C3.44671 6.4695 3.88007 5.42321 4.65146 4.65177Z" fill="#1965E1"/>
</g>
</svg>
