<svg width="17" height="16" viewBox="0 0 17 16" fill="none" xmlns="http://www.w3.org/2000/svg">
<g id="Icons/where">
<path id="Icon (Stroke)" fill-rule="evenodd" clip-rule="evenodd" d="M8.5 1.9C6.60382 1.9 5.06666 3.43715 5.06666 5.33333C5.06666 6.45559 5.67847 7.31597 6.53376 8.2068C6.73822 8.41975 6.95045 8.62848 7.16805 8.84248L7.19228 8.86631C7.4161 9.08644 7.64552 9.31256 7.86418 9.543C8.08506 9.77578 8.30216 10.0202 8.5 10.2798C8.69783 10.0202 8.91493 9.77578 9.13581 9.543C9.35448 9.31256 9.5839 9.08644 9.80772 8.86631L9.83191 8.84251C10.0495 8.62849 10.2618 8.41976 10.4662 8.2068C11.3215 7.31597 11.9333 6.45559 11.9333 5.33333C11.9333 3.43715 10.3962 1.9 8.5 1.9ZM3.93333 5.33333C3.93333 2.81123 5.9779 0.766663 8.5 0.766663C11.0221 0.766663 13.0667 2.81123 13.0667 5.33333C13.0667 6.9202 12.1785 8.05983 11.2838 8.99171C11.0677 9.2167 10.8451 9.43569 10.6305 9.64667L10.6024 9.67431C10.377 9.896 10.1611 10.1089 9.95793 10.3231C9.54914 10.7539 9.21943 11.1616 9.00684 11.5868C8.91085 11.7787 8.71463 11.9 8.5 11.9C8.28536 11.9 8.08914 11.7787 7.99315 11.5868C7.78056 11.1616 7.45085 10.7539 7.04206 10.3231C6.83885 10.1089 6.62296 9.896 6.39756 9.67431L6.36946 9.64668C6.15493 9.4357 5.93225 9.21671 5.71623 8.99171C4.82152 8.05983 3.93333 6.9202 3.93333 5.33333ZM7.26666 5.33333C7.26666 4.65218 7.81885 4.1 8.5 4.1C9.18115 4.1 9.73333 4.65218 9.73333 5.33333C9.73333 6.01448 9.18115 6.56666 8.5 6.56666C7.81885 6.56666 7.26666 6.01448 7.26666 5.33333ZM4.35179 9.29552C4.47811 9.58186 4.34838 9.91638 4.06204 10.0427C3.48868 10.2956 3.05913 10.5838 2.78064 10.8759C2.50492 11.1651 2.4 11.4315 2.4 11.6667C2.4 12.1332 2.84753 12.7443 4.01849 13.2712C5.13626 13.7742 6.7202 14.1 8.5 14.1C10.2798 14.1 11.8637 13.7742 12.9815 13.2712C14.1525 12.7443 14.6 12.1332 14.6 11.6667C14.6 11.4315 14.4951 11.1651 14.2194 10.8759C13.9409 10.5838 13.5113 10.2956 12.9379 10.0427C12.6516 9.91638 12.5219 9.58186 12.6482 9.29552C12.7745 9.00918 13.109 8.87946 13.3954 9.00577C14.0563 9.29732 14.6267 9.66075 15.0397 10.0939C15.4554 10.53 15.7333 11.0626 15.7333 11.6667C15.7333 12.857 14.6885 13.7459 13.4466 14.3047C12.1515 14.8875 10.4021 15.2333 8.5 15.2333C6.59789 15.2333 4.8485 14.8875 3.55341 14.3047C2.31151 13.7459 1.26666 12.857 1.26666 11.6667C1.26666 11.0626 1.54462 10.53 1.96034 10.0939C2.37329 9.66075 2.94374 9.29732 3.60461 9.00577C3.89095 8.87946 4.22547 9.00918 4.35179 9.29552Z" fill="#CCCCCC"/>
</g>
</svg>
