<svg width="50" height="50" viewBox="0 0 50 50" fill="none" xmlns="http://www.w3.org/2000/svg">
<g id="Icons/Setting">
<path id="Vector" d="M45.8749 31.4791L42.448 28.5492C42.6102 27.5551 42.6939 26.5401 42.6939 25.5251C42.6939 24.5101 42.6102 23.4951 42.448 22.5011L45.8749 19.5712C46.1334 19.3499 46.3184 19.0552 46.4053 18.7262C46.4922 18.3972 46.4769 18.0496 46.3615 17.7295L46.3144 17.5935C45.371 14.9567 43.9583 12.5124 42.1445 10.3786L42.0504 10.2688C41.8303 10.01 41.5371 9.82407 41.2093 9.73535C40.8814 9.64662 40.5344 9.6593 40.2139 9.77172L35.9604 11.2838C34.3908 9.99669 32.6381 8.9817 30.7441 8.27015L29.9227 3.823C29.8607 3.48837 29.6984 3.18053 29.4573 2.94036C29.2162 2.70018 28.9077 2.53906 28.5729 2.47839L28.4316 2.45223C25.7057 1.96042 22.8386 1.96042 20.1128 2.45223L19.9715 2.47839C19.6367 2.53906 19.3282 2.70018 19.0871 2.94036C18.846 3.18053 18.6837 3.48837 18.6217 3.823L17.795 8.29108C15.9162 9.00277 14.1665 10.0172 12.6154 11.2942L8.33045 9.77172C8.01008 9.65841 7.66281 9.64527 7.33479 9.73405C7.00677 9.82283 6.71353 10.0093 6.49404 10.2688L6.39986 10.3786C4.58828 12.5139 3.17581 14.9578 2.23 17.5935L2.18291 17.7295C1.94748 18.3835 2.14106 19.116 2.66948 19.5712L6.13827 22.5324C5.97608 23.516 5.8976 24.5206 5.8976 25.5199C5.8976 26.5244 5.97608 27.529 6.13827 28.5073L2.66948 31.4686C2.411 31.6899 2.22601 31.9846 2.13909 32.3136C2.05218 32.6425 2.06746 32.9902 2.18291 33.3103L2.23 33.4463C3.17698 36.0832 4.57915 38.516 6.39986 40.6611L6.49404 40.771C6.71406 41.0297 7.00731 41.2157 7.33514 41.3044C7.66296 41.3932 8.00998 41.3805 8.33045 41.268L12.6154 39.7456C14.1745 41.0274 15.9168 42.0424 17.795 42.7487L18.6217 47.2168C18.6837 47.5514 18.846 47.8592 19.0871 48.0994C19.3282 48.3396 19.6367 48.5007 19.9715 48.5614L20.1128 48.5875C22.8637 49.082 25.6807 49.082 28.4316 48.5875L28.5729 48.5614C28.9077 48.5007 29.2162 48.3396 29.4573 48.0994C29.6984 47.8592 29.8607 47.5514 29.9227 47.2168L30.7441 42.7696C32.6373 42.0599 34.3999 41.0416 35.9604 39.756L40.2139 41.268C40.5343 41.3814 40.8816 41.3945 41.2096 41.3057C41.5376 41.2169 41.8309 41.0304 42.0504 40.771L42.1445 40.6611C43.9652 38.5108 45.3674 36.0832 46.3144 33.4463L46.3615 33.3103C46.5969 32.6667 46.4033 31.9343 45.8749 31.4791ZM38.7333 23.1184C38.8641 23.9084 38.9321 24.7194 38.9321 25.5303C38.9321 26.3413 38.8641 27.1523 38.7333 27.9423L38.388 30.0403L42.2963 33.3835C41.7038 34.7485 40.9559 36.0406 40.0674 37.2342L35.2122 35.5129L33.5694 36.8627C32.3189 37.8882 30.9272 38.6939 29.4204 39.259L27.4271 40.0071L26.4905 45.0821C25.0129 45.2496 23.521 45.2496 22.0434 45.0821L21.1069 39.9967L19.1292 39.2381C17.6381 38.673 16.2516 37.8673 15.0116 36.8471L13.3688 35.492L8.48218 37.229C7.59275 36.0309 6.84981 34.7386 6.25337 33.3783L10.2035 30.0037L9.86341 27.9109C9.73785 27.1313 9.66983 26.3256 9.66983 25.5303C9.66983 24.7299 9.73261 23.9294 9.86341 23.1498L10.2035 21.057L6.25337 17.6824C6.84458 16.3169 7.59275 15.0298 8.48218 13.8317L13.3688 15.5687L15.0116 14.2136C16.2516 13.1934 17.6381 12.3877 19.1292 11.8226L21.1121 11.0745L22.0486 5.98902C23.5188 5.8216 25.0204 5.8216 26.4958 5.98902L27.4323 11.064L29.4257 11.8122C30.9272 12.3772 32.3242 13.183 33.5746 14.2084L35.2174 15.5583L40.0727 13.8369C40.9621 15.0351 41.705 16.3274 42.3015 17.6877L38.3932 21.0309L38.7333 23.1184ZM24.2774 15.7989C19.192 15.7989 15.0692 19.9217 15.0692 25.0072C15.0692 30.0926 19.192 34.2154 24.2774 34.2154C29.3629 34.2154 33.4857 30.0926 33.4857 25.0072C33.4857 19.9217 29.3629 15.7989 24.2774 15.7989ZM28.4211 29.1509C27.8776 29.6959 27.2318 30.1281 26.5206 30.4226C25.8095 30.7171 25.0471 30.8681 24.2774 30.8669C22.7131 30.8669 21.2429 30.2548 20.1337 29.1509C19.5887 28.6074 19.1565 27.9615 18.862 27.2503C18.5674 26.5392 18.4164 25.7769 18.4176 25.0072C18.4176 23.4428 19.0298 21.9726 20.1337 20.8634C21.2429 19.7543 22.7131 19.1474 24.2774 19.1474C25.8418 19.1474 27.312 19.7543 28.4211 20.8634C28.9662 21.4069 29.3984 22.0528 29.6929 22.764C29.9874 23.4751 30.1384 24.2374 30.1372 25.0072C30.1372 26.5715 29.5251 28.0417 28.4211 29.1509Z" fill="white"/>
</g>
</svg>
