<svg width="21" height="20" viewBox="0 0 21 20" fill="none" xmlns="http://www.w3.org/2000/svg">
<g id="Icons/Sort">
<g id="Up_Down">
<g id="Path">
<path id="Vector" d="M18.7802 12.4698C18.6396 12.3292 18.4488 12.2502 18.25 12.2502C18.0511 12.2502 17.8604 12.3292 17.7197 12.4698L15.25 14.9396V3.25C15.25 3.05109 15.1709 2.86032 15.0303 2.71967C14.8896 2.57902 14.6989 2.5 14.5 2.5C14.301 2.5 14.1103 2.57902 13.9696 2.71967C13.829 2.86032 13.75 3.05109 13.75 3.25V14.9396L11.2802 12.4698C11.1387 12.3332 10.9493 12.2576 10.7526 12.2593C10.556 12.261 10.3679 12.3399 10.2288 12.4789C10.0898 12.618 10.0109 12.8061 10.0092 13.0027C10.0075 13.1994 10.0831 13.3888 10.2197 13.5303L13.9697 17.2803C14.0394 17.3502 14.1221 17.4056 14.2133 17.4434C14.3044 17.4812 14.4021 17.5007 14.5007 17.5007C14.5994 17.5007 14.697 17.4812 14.7882 17.4434C14.8793 17.4056 14.962 17.3502 15.0317 17.2803L18.7817 13.5303C18.9221 13.3895 19.0008 13.1986 19.0006 12.9997C19.0003 12.8009 18.921 12.6102 18.7802 12.4698Z" fill="#212121"/>
<path id="Vector_2" d="M11.2802 6.46989L7.5302 2.71987C7.46035 2.64988 7.37723 2.59455 7.2857 2.55712C7.10223 2.48128 6.89617 2.48128 6.7127 2.55712C6.62118 2.59455 6.53805 2.64988 6.4682 2.71987L2.71818 6.46989C2.57755 6.61072 2.49862 6.80165 2.49876 7.00067C2.4989 7.1997 2.5781 7.39051 2.71893 7.53115C2.85976 7.67178 3.05069 7.7507 3.24972 7.75056C3.44874 7.75042 3.63956 7.67123 3.78019 7.53039L6.24995 5.06063V16.7502C6.24995 16.9491 6.32897 17.1399 6.46962 17.2805C6.61027 17.4212 6.80104 17.5002 6.99995 17.5002C7.19886 17.5002 7.38963 17.4212 7.53028 17.2805C7.67094 17.1399 7.74995 16.9491 7.74995 16.7502V5.06063L10.2197 7.53039C10.3612 7.66701 10.5506 7.74261 10.7473 7.7409C10.9439 7.73919 11.132 7.66032 11.2711 7.52126C11.4101 7.3822 11.489 7.19409 11.4907 6.99744C11.4924 6.8008 11.4168 6.61134 11.2802 6.46989Z" fill="#212121"/>
</g>
</g>
</g>
</svg>
