<svg width="24" height="24" viewBox="0 0 24 24" fill="none" xmlns="http://www.w3.org/2000/svg">
<rect x="4" y="4" width="16" height="16" fill="white"/>
<path fill-rule="evenodd" clip-rule="evenodd" d="M3.71244 3.71244C4.16861 3.25627 4.78731 3 5.43243 3H18.5676C19.2127 3 19.8314 3.25627 20.2876 3.71244C20.7437 4.16861 21 4.78731 21 5.43243V18.5676C21 19.2127 20.7437 19.8314 20.2876 20.2876C19.8314 20.7437 19.2127 21 18.5676 21H5.43243C4.78731 21 4.16861 20.7437 3.71244 20.2876C3.25627 19.8314 3 19.2127 3 18.5676V5.43243C3 4.78731 3.25627 4.16861 3.71244 3.71244ZM19.3416 4.65844C19.1363 4.45316 18.8579 4.33784 18.5676 4.33784H5.43243C5.14213 4.33784 4.86371 4.45316 4.65844 4.65844C4.45316 4.86371 4.33784 5.14213 4.33784 5.43243V18.5676C4.33784 18.8579 4.45316 19.1363 4.65844 19.3416C4.86371 19.5468 5.14213 19.6622 5.43243 19.6622H18.5676C18.8579 19.6622 19.1363 19.5468 19.3416 19.3416C19.5468 19.1363 19.6622 18.8579 19.6622 18.5676V5.43243C19.6622 5.14213 19.5468 4.86371 19.3416 4.65844Z" fill="#777777"/>
</svg>
