<svg width="40" height="40" viewBox="0 0 40 40" fill="none" xmlns="http://www.w3.org/2000/svg">
<g id="Icons/WarrantySearch">
<path id="Icon (Stroke)" fill-rule="evenodd" clip-rule="evenodd" d="M14.5978 1.66667H25.4022C26.7438 1.66665 27.8511 1.66663 28.753 1.74033C29.6899 1.81687 30.551 1.98115 31.3599 2.3933C32.6143 3.03245 33.6342 4.05232 34.2734 5.30674C34.6855 6.11563 34.8498 6.9768 34.9263 7.91363C35 8.81561 35 9.92287 35 11.2645V17.5C35 18.4205 34.2538 19.1667 33.3333 19.1667C32.4129 19.1667 31.6667 18.4205 31.6667 17.5V11.3333C31.6667 9.90571 31.6654 8.93522 31.6041 8.18507C31.5444 7.45438 31.4362 7.08071 31.3034 6.82004C30.9838 6.19283 30.4738 5.6829 29.8466 5.36332C29.586 5.2305 29.2123 5.12229 28.4816 5.06259C27.7315 5.0013 26.761 5.00001 25.3333 5.00001H14.6667C13.239 5.00001 12.2685 5.0013 11.5184 5.06259C10.7877 5.12229 10.414 5.2305 10.1534 5.36332C9.52616 5.6829 9.01622 6.19283 8.69665 6.82004C8.56383 7.08071 8.45562 7.45438 8.39592 8.18507C8.33463 8.93522 8.33333 9.90571 8.33333 11.3333V28.6667C8.33333 30.0943 8.33463 31.0648 8.39592 31.8149C8.45562 32.5456 8.56383 32.9193 8.69665 33.18C9.01622 33.8072 9.52616 34.3171 10.1534 34.6367C10.414 34.7695 10.7877 34.8777 11.5184 34.9374C12.2685 34.9987 13.239 35 14.6667 35H19.1667C20.0871 35 20.8333 35.7462 20.8333 36.6667C20.8333 37.5871 20.0871 38.3333 19.1667 38.3333H14.5978C13.2562 38.3334 12.1489 38.3334 11.247 38.2597C10.3101 38.1831 9.44896 38.0189 8.64006 37.6067C7.38565 36.9676 6.36578 35.9477 5.72662 34.6933C5.31447 33.8844 5.1502 33.0232 5.07366 32.0864C4.99996 31.1844 4.99998 30.0771 5 28.7355V11.2645C4.99998 9.92289 4.99996 8.81562 5.07366 7.91363C5.1502 6.9768 5.31447 6.11563 5.72662 5.30674C6.36578 4.05232 7.38565 3.03245 8.64006 2.3933C9.44896 1.98115 10.3101 1.81687 11.247 1.74033C12.149 1.66663 13.2562 1.66665 14.5978 1.66667ZM11.6667 11.6667C11.6667 10.7462 12.4129 10 13.3333 10H26.6667C27.5871 10 28.3333 10.7462 28.3333 11.6667C28.3333 12.5871 27.5871 13.3333 26.6667 13.3333H13.3333C12.4129 13.3333 11.6667 12.5871 11.6667 11.6667ZM11.6667 18.3333C11.6667 17.4129 12.4129 16.6667 13.3333 16.6667H23.3333C24.2538 16.6667 25 17.4129 25 18.3333C25 19.2538 24.2538 20 23.3333 20H13.3333C12.4129 20 11.6667 19.2538 11.6667 18.3333ZM30 25.8333C27.6988 25.8333 25.8333 27.6988 25.8333 30C25.8333 32.3012 27.6988 34.1667 30 34.1667C32.3012 34.1667 34.1667 32.3012 34.1667 30C34.1667 27.6988 32.3012 25.8333 30 25.8333ZM22.5 30C22.5 25.8579 25.8579 22.5 30 22.5C34.1421 22.5 37.5 25.8579 37.5 30C37.5 31.4676 37.0785 32.8367 36.3499 33.9929L37.8452 35.4882C38.4961 36.139 38.4961 37.1943 37.8452 37.8452C37.1943 38.4961 36.139 38.4961 35.4882 37.8452L33.9929 36.3499C32.8367 37.0785 31.4676 37.5 30 37.5C25.8579 37.5 22.5 34.1421 22.5 30Z" fill="#0D2EA0"/>
</g>
</svg>
