<svg width="40" height="40" viewBox="0 0 40 40" fill="none" xmlns="http://www.w3.org/2000/svg">
<g id="Icons/where">
<path id="Icon (Stroke)" fill-rule="evenodd" clip-rule="evenodd" d="M20 4.75002C15.2595 4.75002 11.4166 8.59291 11.4166 13.3334C11.4166 16.139 12.9461 18.29 15.0844 20.517C15.5955 21.0494 16.1261 21.5712 16.6701 22.1062L16.7307 22.1658C17.2902 22.7161 17.8638 23.2814 18.4104 23.8575C18.9626 24.4395 19.5054 25.0506 20 25.6995C20.4945 25.0506 21.0373 24.4395 21.5895 23.8575C22.1362 23.2814 22.7097 22.7161 23.2693 22.1658L23.3297 22.1063C23.8738 21.5713 24.4044 21.0494 24.9155 20.517C27.0538 18.29 28.5833 16.139 28.5833 13.3334C28.5833 8.59291 24.7404 4.75002 20 4.75002ZM8.58329 13.3334C8.58329 7.0281 13.6947 1.91669 20 1.91669C26.3052 1.91669 31.4166 7.0281 31.4166 13.3334C31.4166 17.3005 29.1961 20.1496 26.9594 22.4793C26.4193 23.0418 25.8626 23.5893 25.3263 24.1167L25.256 24.1858C24.6926 24.74 24.1528 25.2724 23.6448 25.8078C22.6228 26.8848 21.7985 27.9039 21.2671 28.9669C21.0271 29.4468 20.5366 29.75 20 29.75C19.4634 29.75 18.9728 29.4468 18.7329 28.9669C18.2014 27.9039 17.3771 26.8848 16.3551 25.8078C15.8471 25.2724 15.3074 24.74 14.7439 24.1858L14.6736 24.1167C14.1373 23.5893 13.5806 23.0418 13.0405 22.4793C10.8038 20.1496 8.58329 17.3005 8.58329 13.3334ZM16.9166 13.3334C16.9166 11.6305 18.2971 10.25 20 10.25C21.7028 10.25 23.0833 11.6305 23.0833 13.3334C23.0833 15.0362 21.7028 16.4167 20 16.4167C18.2971 16.4167 16.9166 15.0362 16.9166 13.3334ZM9.62944 23.2388C9.94523 23.9547 9.62092 24.791 8.90508 25.1068C7.47167 25.7391 6.3978 26.4595 5.70157 27.1898C5.01227 27.9129 4.74996 28.5788 4.74996 29.1667C4.74996 30.333 5.8688 31.8608 8.7962 33.1781C11.5906 34.4356 15.5505 35.25 20 35.25C24.4494 35.25 28.4093 34.4356 31.2037 33.1781C34.1311 31.8608 35.25 30.333 35.25 29.1667C35.25 28.5788 34.9877 27.9129 34.2984 27.1898C33.6021 26.4595 32.5282 25.7391 31.0948 25.1068C30.379 24.791 30.0547 23.9547 30.3705 23.2388C30.6863 22.523 31.5226 22.1987 32.2384 22.5145C33.8906 23.2433 35.3167 24.1519 36.3491 25.2348C37.3884 26.325 38.0833 27.6565 38.0833 29.1667C38.0833 32.1425 35.4712 34.3647 32.3664 35.7619C29.1287 37.2189 24.7552 38.0834 20 38.0834C15.2447 38.0834 10.8712 37.2189 7.6335 35.7619C4.52874 34.3647 1.91663 32.1425 1.91663 29.1667C1.91663 27.6565 2.61151 26.325 3.65081 25.2348C4.68319 24.1519 6.10931 23.2433 7.76151 22.5145C8.47735 22.1987 9.31365 22.523 9.62944 23.2388Z" fill="white"/>
</g>
</svg>
