<svg width="12" height="12" viewBox="0 0 12 12" fill="none" xmlns="http://www.w3.org/2000/svg">
<g id="Icons/ExternalLink">
<path id="Union" fill-rule="evenodd" clip-rule="evenodd" d="M9.6749 2.00988C9.66869 2.00662 9.66248 2.00335 9.65618 2.00021L9.65681 2H6.79748C6.79557 2.00145 6.79374 2.00309 6.79191 2.00473C6.78796 2.00825 6.78403 2.01177 6.77932 2.01333C6.54491 2.0925 6.41319 2.28771 6.44868 2.50312C6.48834 2.74416 6.66535 2.88979 6.91981 2.88979H8.38078H8.46135L8.47429 2.91437C8.46642 2.92025 8.45827 2.92586 8.45012 2.93146C8.43257 2.94354 8.41502 2.95562 8.40019 2.97041C7.21559 4.15395 6.03162 5.3379 4.84764 6.52206C4.84303 6.52667 4.83839 6.53126 4.83375 6.53585C4.81426 6.55514 4.79475 6.57445 4.77688 6.59498C4.60175 6.79644 4.6389 7.10019 4.85683 7.25394C5.03989 7.3831 5.27702 7.35414 5.45132 7.17977C6.04883 6.58239 6.64623 5.98495 7.24364 5.38751C7.84127 4.78985 8.4389 4.19219 9.03664 3.59458C9.05076 3.58049 9.06537 3.56689 9.08351 3.55002C9.09165 3.54245 9.1005 3.53422 9.11032 3.52499V3.62916C9.11032 3.76838 9.11021 3.90761 9.1101 4.04686C9.1098 4.40499 9.10951 4.76317 9.11116 5.12124C9.1122 5.36019 9.31364 5.55582 9.55265 5.55832C9.79353 5.56103 9.99893 5.36186 9.99935 5.11957C10.0004 4.22645 9.99998 3.33312 9.99935 2.44C9.99914 2.25458 9.88955 2.09896 9.71609 2.02979C9.70192 2.02408 9.68844 2.01699 9.6749 2.00988ZM2.01936 3.98225C2.01306 4.00912 2.00676 4.03599 2 4.0627V8.82831C2.00496 8.84908 2.00952 8.87001 2.01409 8.89094C2.02431 8.93783 2.03454 8.98475 2.04926 9.02997C2.22043 9.56101 2.57884 9.88185 3.12928 9.98476C3.13931 9.98662 3.14894 9.99063 3.15858 9.99465C3.16299 9.99649 3.16741 9.99833 3.17187 9.99997H7.93761C7.94403 9.99818 7.95042 9.99612 7.95682 9.99405C7.96979 9.98987 7.98278 9.98567 7.99606 9.98372C8.60224 9.89643 9.09758 9.33893 9.10885 8.72706C9.11207 8.55334 9.11158 8.37952 9.11109 8.20574C9.11091 8.14256 9.11073 8.07939 9.11073 8.01623C9.11073 7.91637 9.11093 7.81649 9.11113 7.71659C9.11169 7.43112 9.11225 7.14554 9.10823 6.86019C9.10447 6.60519 8.85544 6.40686 8.60496 6.44894C8.37472 6.48748 8.22108 6.66519 8.22067 6.89894C8.2199 7.25376 8.21999 7.60865 8.22008 7.96352C8.22014 8.18937 8.2202 8.41521 8.22004 8.64102C8.21983 8.92372 8.03363 9.11018 7.75037 9.11018C6.2869 9.1106 4.82342 9.1106 3.35994 9.11018C3.07773 9.11018 2.89007 8.92227 2.89007 8.64039C2.88986 7.17686 2.88986 5.71353 2.89007 4.24999C2.89007 3.96687 3.07647 3.78041 3.3589 3.78041C3.5969 3.78024 3.83493 3.78032 4.07297 3.78039C4.41304 3.7805 4.75311 3.78061 5.09311 3.78C5.35571 3.77958 5.55839 3.58333 5.55839 3.33375C5.5586 3.08542 5.3626 2.89104 5.10104 2.89021C5.07306 2.89011 5.04507 2.89001 5.01709 2.88992C4.44348 2.88791 3.86989 2.88591 3.29649 2.89167C2.73247 2.89729 2.23358 3.27521 2.06304 3.8152C2.04568 3.87 2.03252 3.92614 2.01936 3.98225Z" fill="white"/>
</g>
</svg>
