<svg width="32" height="32" viewBox="0 0 32 32" fill="none" xmlns="http://www.w3.org/2000/svg">
<g id="Icons/Close">
<path id="Vector" d="M18.1535 16.0008L23.5352 10.6175C23.6806 10.477 23.7966 10.3091 23.8764 10.1233C23.9562 9.93757 23.9982 9.7378 23.9999 9.53565C24.0017 9.3335 23.9632 9.13303 23.8866 8.94593C23.8101 8.75883 23.697 8.58885 23.5541 8.44591C23.4111 8.30296 23.2412 8.18992 23.0541 8.11337C22.867 8.03682 22.6665 7.9983 22.4644 8.00006C22.2622 8.00181 22.0624 8.04381 21.8767 8.1236C21.691 8.20339 21.523 8.31937 21.3825 8.46478L15.9992 13.8465L10.6175 8.46478C10.477 8.31937 10.3091 8.20339 10.1233 8.1236C9.93757 8.04381 9.7378 8.00181 9.53565 8.00006C9.3335 7.9983 9.13303 8.03682 8.94593 8.11337C8.75883 8.18992 8.58885 8.30296 8.44591 8.44591C8.30296 8.58885 8.18992 8.75883 8.11337 8.94593C8.03682 9.13303 7.9983 9.3335 8.00006 9.53565C8.00181 9.7378 8.04381 9.93757 8.1236 10.1233C8.20339 10.3091 8.31937 10.477 8.46478 10.6175L13.8465 15.9992L8.46478 21.3825C8.31937 21.523 8.20339 21.691 8.1236 21.8767C8.04381 22.0624 8.00181 22.2622 8.00006 22.4644C7.9983 22.6665 8.03682 22.867 8.11337 23.0541C8.18992 23.2412 8.30296 23.4111 8.44591 23.5541C8.58885 23.697 8.75883 23.8101 8.94593 23.8866C9.13303 23.9632 9.3335 24.0017 9.53565 23.9999C9.7378 23.9982 9.93757 23.9562 10.1233 23.8764C10.3091 23.7966 10.477 23.6806 10.6175 23.5352L15.9992 18.1535L21.3825 23.5352C21.523 23.6806 21.691 23.7966 21.8767 23.8764C22.0624 23.9562 22.2622 23.9982 22.4644 23.9999C22.6665 24.0017 22.867 23.9632 23.0541 23.8866C23.2412 23.8101 23.4111 23.697 23.5541 23.5541C23.697 23.4111 23.8101 23.2412 23.8866 23.0541C23.9632 22.867 24.0017 22.6665 23.9999 22.4644C23.9982 22.2622 23.9562 22.0624 23.8764 21.8767C23.7966 21.691 23.6806 21.523 23.5352 21.3825L18.1535 15.9992V16.0008Z" fill="white"/>
</g>
</svg>
