<svg width="14" height="14" viewBox="0 0 14 14" fill="none" xmlns="http://www.w3.org/2000/svg">
<g id="Icons/Youtube">
<path id="Vector" d="M12.5959 4.20171C12.5295 3.9552 12.3996 3.73038 12.2193 3.54964C12.039 3.36891 11.8145 3.23855 11.5681 3.17155C10.6546 2.92071 7.00001 2.91663 7.00001 2.91663C7.00001 2.91663 3.34601 2.91255 2.43193 3.1523C2.18572 3.22238 1.96166 3.35458 1.78126 3.53621C1.60086 3.71783 1.47018 3.94278 1.40176 4.18946C1.16084 5.10296 1.15851 6.99763 1.15851 6.99763C1.15851 6.99763 1.15618 8.90163 1.39534 9.8058C1.52951 10.3057 1.92326 10.7006 2.42376 10.8354C3.34659 11.0862 6.99126 11.0903 6.99126 11.0903C6.99126 11.0903 10.6458 11.0944 11.5593 10.8552C11.8058 10.7883 12.0305 10.6583 12.2113 10.4779C12.3921 10.2975 12.5226 10.0731 12.5901 9.8268C12.8316 8.91388 12.8333 7.0198 12.8333 7.0198C12.8333 7.0198 12.845 5.11521 12.5959 4.20171ZM5.83101 8.75288L5.83393 5.25288L8.87134 7.0058L5.83101 8.75288Z" fill="#0D2EA0"/>
</g>
</svg>
